<svg width="196" height="201" viewBox="0 0 196 201" fill="none" xmlns="http://www.w3.org/2000/svg">
<path d="M113.842 86.9522C116.55 84.5009 116.539 80.5037 113.842 78.0622L109.764 74.3715C107.095 71.9586 102.682 71.8903 99.9389 74.3715C99.0562 75.1703 76.5286 95.5554 75.5527 96.4385C72.8433 98.8903 72.8428 102.877 75.5531 105.329L79.6313 109.019C82.3407 111.471 86.7466 111.471 89.4556 109.019C98.2016 101.105 105.276 94.704 113.842 86.9522ZM99.6606 91.4617C99.5574 91.5539 99.4347 91.5736 99.3493 91.5736C99.2634 91.5736 99.1394 91.5539 99.0354 91.4602L94.9572 87.7698C94.7907 87.6188 94.7903 87.354 94.9568 87.2029L104.538 78.533C104.621 78.4577 104.736 78.4196 104.851 78.4196C104.967 78.4196 105.081 78.4577 105.165 78.533L109.243 82.2237C109.41 82.3748 109.41 82.64 109.243 82.7911L99.6606 91.4617ZM84.8563 104.858C84.6889 105.009 84.3967 105.009 84.2297 104.858L80.1516 101.167C79.9842 101.016 79.9842 100.751 80.1516 100.6L90.0613 91.6328C90.1589 91.7328 90.2529 91.8349 90.3587 91.9306L94.4369 95.6213C94.5423 95.7166 94.655 95.8026 94.7656 95.8912L84.8563 104.858Z" fill="#F3C677"/>
<path d="M67.616 112.04L63.9211 115.384C62.6507 116.533 62.6507 118.396 63.9207 119.545C64.5558 120.12 65.3879 120.407 66.2203 120.407C67.0524 120.407 67.8848 120.12 68.5196 119.545L72.2145 116.201C73.4848 115.052 73.4848 113.189 72.2149 112.04C70.9445 110.892 68.8855 110.891 67.616 112.04Z" fill="#F3C677"/>
<path d="M6.08866 194.361C14.1583 201.664 27.3276 201.7 35.4458 194.441L75.2851 158.822C80.8474 153.849 89.8696 153.874 95.3976 158.876C100.997 163.943 100.97 172.15 95.3369 177.186L74.4886 195.826C73.2113 196.968 73.1987 198.831 74.4613 199.987C75.723 201.143 77.782 201.155 79.0598 200.012L99.9081 181.372C108.11 174.039 108.148 162.092 99.9965 154.715C91.9468 147.431 78.8118 147.395 70.7139 154.635L30.8747 190.255C25.2929 195.246 16.2369 195.221 10.6871 190.2C5.09144 185.136 5.09144 176.941 10.6876 171.877L22.6958 161.011C25.9775 163.69 30.9718 163.552 34.0662 160.753L42.5109 153.111C46.844 155.321 52.3378 154.846 56.145 151.736L93.7873 120.982C95.1201 119.893 95.2251 118.032 94.0215 116.826C92.8183 115.62 90.7614 115.526 89.4286 116.614L51.7863 147.368C49.7125 149.063 46.5397 148.99 44.563 147.201L44.5049 147.149C44.5045 147.148 44.5036 147.147 44.5032 147.147L33.4189 137.116C33.4176 137.115 33.4159 137.114 33.4146 137.113L33.3586 137.062C31.3824 135.274 31.3013 132.403 33.1739 130.525L103.038 60.5039C103.229 60.7127 128.921 83.9614 129.152 84.136C129.158 84.1399 129.162 84.145 129.168 84.149L100.708 107.4C99.3748 108.49 99.2699 110.35 100.473 111.557C101.677 112.763 103.733 112.857 105.066 111.769L136.286 86.2625C138.799 86.1354 141.137 85.1945 142.922 83.5793L146.986 79.9023C148.367 80.3872 149.848 80.6454 151.373 80.6485H151.475C163.188 80.6485 174.245 76.5729 182.618 69.1671C197.803 55.737 200.377 34.3071 188.737 18.2114C187.753 16.8516 185.738 16.4702 184.235 17.3605C182.733 18.2503 182.311 20.0743 183.295 21.4341C193.238 35.1836 191.042 53.4885 178.072 64.9585C170.92 71.2838 161.479 74.7638 151.475 74.7638C151.446 74.7638 151.416 74.7638 151.387 74.7638C149.831 74.7607 148.415 74.1946 147.378 73.2557L115.077 44.0261C114.042 43.0908 113.413 41.8102 113.41 40.3997C113.386 31.1692 117.345 22.4911 124.558 15.9645C137.899 3.89306 158.732 2.65484 173.609 12.3071C175.068 13.2542 177.1 12.9514 178.147 11.6304C179.193 10.3094 178.859 8.47125 177.399 7.52454C159.921 -3.81599 135.54 -2.29607 119.959 11.8022C111.514 19.4442 106.879 29.6045 106.906 40.4123C106.909 41.7917 107.195 43.1312 107.731 44.3804L103.667 48.0578C101.827 49.7233 100.848 51.8713 100.708 54.0562L28.3461 126.582C24.8862 130.05 24.4062 135.032 26.8273 138.919L18.3822 146.561C15.2617 149.384 15.1733 153.918 18.0973 156.849L6.08866 167.716C-2.02955 175.062 -2.02955 187.015 6.08866 194.361ZM108.266 52.2193L111.6 49.2022L141.657 76.4007L138.323 79.4178C136.901 80.7046 134.562 80.7246 133.114 79.4495C133.101 79.4386 133.087 79.4291 133.075 79.4178L108.266 56.9682C108.262 56.9642 108.258 56.9599 108.253 56.9556C106.826 55.6495 106.824 53.5242 108.266 52.2193ZM22.9815 150.722L31.1188 143.359L37.6046 149.228L29.4673 156.591C28.7814 157.212 27.6658 157.212 26.979 156.591C25.4902 155.244 24.4682 154.319 22.9815 152.974C22.2947 152.353 22.2947 151.343 22.9815 150.722Z" fill="#F3C677"/>
</svg>
