<svg width="189" height="202" viewBox="0 0 189 202" fill="none" xmlns="http://www.w3.org/2000/svg">
<path d="M0 53.7093V144.097C0.0119566 153.337 8.10078 160.824 18.0825 160.835H54.2476C55.3838 160.844 56.4519 161.338 57.1408 162.175L85.6823 197.392C87.768 199.707 90.8652 201.034 94.1213 201.008C97.3774 200.982 100.449 199.606 102.492 197.258L130.918 162.175C131.607 161.339 132.675 160.845 133.811 160.835H169.976C179.958 160.824 188.046 153.337 188.058 144.097V53.7093C188.046 44.4695 179.958 36.9819 169.976 36.9709H146.28C139.546 14.3364 116.747 -0.942139 91.4144 0.203174C68.0341 1.29001 48.0255 16.0982 41.7345 36.9709H18.0825C8.10078 36.9819 0.0119566 44.4695 0 53.7093H0ZM91.7544 6.89186C104.603 6.31571 117.146 10.6383 126.46 18.8522C135.773 27.0661 141.044 38.4539 141.044 50.3616C141.093 62.4006 135.69 73.9078 126.147 82.0877C117.037 90.2241 111.959 101.48 112.112 113.198V117.315H75.9466V113.76C76.1042 101.788 70.959 90.2785 61.7085 81.9103C48.0289 69.9328 43.3985 51.551 49.9441 35.208C56.4897 18.8651 72.9461 7.71993 91.7544 6.89186ZM104.879 140.749H83.1797C79.185 140.749 75.9466 137.752 75.9466 134.054V124.011H112.112V134.054C112.112 137.752 108.873 140.749 104.879 140.749ZM7.23301 53.7093C7.23301 48.1627 12.0905 43.6663 18.0825 43.6663H40.3132C40.2119 44.3659 40.0709 45.0555 40.0058 45.7653C38.464 61.0909 44.6371 76.2193 56.7394 86.7745C64.5473 93.8768 68.8742 103.628 68.7136 113.76V134.054C68.7383 140.141 73.1956 145.447 79.5631 146.969V150.792C79.5631 152.641 81.1823 154.14 83.1797 154.14C85.177 154.14 86.7962 152.641 86.7962 150.792V147.445H101.262V150.792C101.262 152.641 102.881 154.14 104.879 154.14C106.876 154.14 108.495 152.641 108.495 150.792V146.969C114.863 145.447 119.32 140.141 119.345 134.054V113.198C119.187 103.333 123.436 93.8463 131.088 86.9787C142.101 77.5376 148.335 64.2562 148.277 50.3616C148.259 48.1214 148.081 45.8848 147.745 43.6663H169.976C175.968 43.6663 180.825 48.1627 180.825 53.7093V144.097C180.825 149.644 175.968 154.14 169.976 154.14H133.811C130.4 154.155 127.191 155.64 125.131 158.157L96.8211 193.111C95.3498 194.543 92.904 194.602 91.353 193.244L62.9272 158.157C60.8686 155.639 57.6591 154.154 54.2476 154.14H18.0825C12.0905 154.14 7.23301 149.644 7.23301 144.097V53.7093Z" fill="#F3C677"/>
<path d="M86.7958 93.8804C84.7984 93.8804 83.1792 95.3792 83.1792 97.2281V107.271C83.1792 109.12 84.7984 110.619 86.7958 110.619C88.7932 110.619 90.4124 109.12 90.4124 107.271V97.2281C90.4124 95.3792 88.7932 93.8804 86.7958 93.8804Z" fill="#F3C677"/>
<path d="M83.1792 80.4896C83.1792 82.3385 84.7984 83.8373 86.7958 83.8373C88.7932 83.8373 90.4124 82.3385 90.4124 80.4896V77.1419C90.4124 75.293 88.7932 73.7942 86.7958 73.7942C84.7984 73.7942 83.1792 75.293 83.1792 77.1419V80.4896Z" fill="#F3C677"/>
<path d="M101.262 110.619C103.259 110.619 104.878 109.12 104.878 107.271V97.2281C104.878 95.3792 103.259 93.8804 101.262 93.8804C99.2646 93.8804 97.6455 95.3792 97.6455 97.2281V107.271C97.6455 109.12 99.2646 110.619 101.262 110.619Z" fill="#F3C677"/>
<path d="M101.262 83.8373C103.259 83.8373 104.878 82.3385 104.878 80.4896V77.1419C104.878 75.293 103.259 73.7942 101.262 73.7942C99.2646 73.7942 97.6455 75.293 97.6455 77.1419V80.4896C97.6455 82.3385 99.2646 83.8373 101.262 83.8373Z" fill="#F3C677"/>
<path d="M36.1644 23.5787C37.7007 23.5794 39.0698 22.6815 39.5785 21.3396C40.0873 19.9977 39.6246 18.5047 38.4247 17.6165L20.3421 4.22576C18.7822 3.07022 16.5057 3.30403 15.2573 4.748C14.009 6.19197 14.2616 8.2993 15.8215 9.45485L33.904 22.8456C34.5457 23.3205 35.3428 23.5791 36.1644 23.5787Z" fill="#F3C677"/>
<path d="M154.153 22.8456L172.236 9.45485C173.795 8.2993 174.048 6.19198 172.8 4.748C171.551 3.30403 169.275 3.07022 167.715 4.22576L149.632 17.6165C148.623 18.364 148.122 19.5531 148.317 20.7358C148.511 21.9185 149.373 22.9151 150.577 23.3503C151.781 23.7855 153.144 23.5931 154.153 22.8456Z" fill="#F3C677"/>
<path d="M15.2576 119.407C15.8569 120.1 16.7295 120.545 17.6831 120.643C18.6368 120.741 19.5934 120.484 20.3424 119.929L38.425 106.538C39.9849 105.382 40.2375 103.275 38.9891 101.831C37.7408 100.387 35.4643 100.153 33.9043 101.309L15.8218 114.7C15.0725 115.254 14.592 116.062 14.4862 116.945C14.3804 117.828 14.6579 118.713 15.2576 119.407Z" fill="#F3C677"/>
<path d="M167.715 119.929C169.275 121.084 171.551 120.851 172.8 119.407C174.048 117.963 173.795 115.855 172.236 114.7L154.153 101.309C152.593 100.153 150.317 100.387 149.068 101.831C147.82 103.275 148.073 105.382 149.633 106.538L167.715 119.929Z" fill="#F3C677"/>
<path d="M60.7896 43.6012C61.0171 43.6433 61.2484 43.6647 61.4804 43.6648C63.2104 43.6619 64.6959 42.5254 65.0246 40.9532C67.6176 28.6237 80.807 23.3745 80.9372 23.3243C82.7838 22.619 83.663 20.6615 82.901 18.9523C82.139 17.243 80.0244 16.4291 78.1778 17.1345C77.4871 17.3956 61.267 23.7428 57.9254 39.6811C57.5477 41.4956 58.8297 43.2502 60.7896 43.6012Z" fill="#F3C677"/>
<path d="M18.0823 60.4034H28.9318C30.9292 60.4034 32.5483 58.9046 32.5483 57.0557C32.5483 55.2068 30.9292 53.708 28.9318 53.708H18.0823C16.085 53.708 14.4658 55.2068 14.4658 57.0557C14.4658 58.9046 16.085 60.4034 18.0823 60.4034Z" fill="#F3C677"/>
<path d="M159.126 60.4034H169.976C171.973 60.4034 173.592 58.9046 173.592 57.0557C173.592 55.2068 171.973 53.708 169.976 53.708H159.126C157.129 53.708 155.51 55.2068 155.51 57.0557C155.51 58.9046 157.129 60.4034 159.126 60.4034Z" fill="#F3C677"/>
</svg>
