<svg width="87" height="85" viewBox="0 0 87 85" fill="none" xmlns="http://www.w3.org/2000/svg">
<g clip-path="url(#clip0)" filter="url(#filter0_d)">
<path d="M43.2685 2.04272C21.8565 2.04272 4.51367 19.0949 4.51367 40.1258C4.51367 56.9551 15.6169 71.2266 31.0123 76.2583C32.9501 76.6168 33.6606 75.438 33.6606 74.4271C33.6606 73.5228 33.6283 71.1265 33.6121 67.9518C22.8318 70.2481 20.5582 62.8426 20.5582 62.8426C18.7948 58.4472 16.2467 57.2716 16.2467 57.2716C12.7362 54.9108 16.518 54.9593 16.518 54.9593C20.4096 55.2241 22.4539 58.8832 22.4539 58.8832C25.9096 64.7061 31.5258 63.0235 33.7413 62.0514C34.0901 59.5872 35.088 57.9111 36.1958 56.9584C27.589 56.0056 18.5429 52.7309 18.5429 38.1397C18.5429 33.9832 20.0447 30.5857 22.5315 27.9213C22.0955 26.9589 20.7875 23.0866 22.8706 17.8418C22.8706 17.8418 26.1163 16.8212 33.5281 21.7463C36.6285 20.9002 39.9227 20.4804 43.2169 20.461C46.511 20.4804 49.8052 20.9002 52.9056 21.7463C60.269 16.8212 63.5147 17.8418 63.5147 17.8418C65.5978 23.0866 64.2898 26.9589 63.9023 27.9213C66.3729 30.5857 67.8746 33.9832 67.8746 38.1397C67.8746 52.7696 58.8157 55.9895 50.1927 56.9261C51.5492 58.0693 52.8087 60.4043 52.8087 63.973C52.8087 69.0693 52.7603 73.1644 52.7603 74.4013C52.7603 75.3992 53.4385 76.5909 55.4246 76.2098C70.9298 71.2105 82.0234 56.9293 82.0234 40.1258C82.0234 19.0949 64.6709 2.04272 43.2685 2.04272Z" fill="white"/>
</g>
<defs>
<filter id="filter0_d" x="0.513672" y="0.427979" width="85.5097" height="85.5097" filterUnits="userSpaceOnUse" color-interpolation-filters="sRGB">
<feFlood flood-opacity="0" result="BackgroundImageFix"/>
<feColorMatrix in="SourceAlpha" type="matrix" values="0 0 0 0 0 0 0 0 0 0 0 0 0 0 0 0 0 0 127 0"/>
<feOffset dy="4"/>
<feGaussianBlur stdDeviation="2"/>
<feColorMatrix type="matrix" values="0 0 0 0 0 0 0 0 0 0 0 0 0 0 0 0 0 0 0.25 0"/>
<feBlend mode="normal" in2="BackgroundImageFix" result="effect1_dropShadow"/>
<feBlend mode="normal" in="SourceGraphic" in2="effect1_dropShadow" result="shape"/>
</filter>
<clipPath id="clip0">
<rect width="77.5097" height="77.5097" fill="white" transform="translate(4.51367 0.427979)"/>
</clipPath>
</defs>
</svg>
