<svg width="86" height="86" viewBox="0 0 86 86" fill="none" xmlns="http://www.w3.org/2000/svg">
<g clip-path="url(#clip0)" filter="url(#filter0_d)">
<path d="M50.1728 38.7548C50.1728 42.8517 46.8517 46.1728 42.7548 46.1728C38.6579 46.1728 35.3369 42.8517 35.3369 38.7548C35.3369 34.6579 38.6579 31.3369 42.7548 31.3369C46.8517 31.3369 50.1728 34.6579 50.1728 38.7548Z" fill="white"/>
<path d="M60.1026 25.6304C59.746 24.6641 59.1771 23.7895 58.4379 23.0716C57.72 22.3324 56.846 21.7635 55.8791 21.4069C55.095 21.1024 53.917 20.7399 51.7474 20.6411C49.4003 20.5341 48.6966 20.511 42.7547 20.511C36.8122 20.511 36.1084 20.5335 33.762 20.6406C31.5923 20.7399 30.4137 21.1024 29.6302 21.4069C28.6633 21.7635 27.7887 22.3324 27.0714 23.0716C26.3322 23.7895 25.7633 24.6635 25.4062 25.6304C25.1016 26.4145 24.7391 27.5931 24.6404 29.7628C24.5333 32.1092 24.5103 32.8129 24.5103 38.7554C24.5103 44.6974 24.5333 45.4011 24.6404 47.7481C24.7391 49.9178 25.1016 51.0958 25.4062 51.8799C25.7633 52.8468 26.3316 53.7208 27.0708 54.4387C27.7887 55.1779 28.6627 55.7468 29.6296 56.1034C30.4137 56.4085 31.5923 56.771 33.762 56.8697C36.1084 56.9768 36.8116 56.9993 42.7541 56.9993C48.6972 56.9993 49.4009 56.9768 51.7468 56.8697C53.9164 56.771 55.095 56.4085 55.8791 56.1034C57.82 55.3547 59.3539 53.8207 60.1026 51.8799C60.4071 51.0958 60.7696 49.9178 60.869 47.7481C60.976 45.4011 60.9985 44.6974 60.9985 38.7554C60.9985 32.8129 60.976 32.1092 60.869 29.7628C60.7702 27.5931 60.4077 26.4145 60.1026 25.6304ZM42.7547 50.1821C36.4432 50.1821 31.3268 45.0664 31.3268 38.7549C31.3268 32.4434 36.4432 27.3276 42.7547 27.3276C49.0656 27.3276 54.182 32.4434 54.182 38.7549C54.182 45.0664 49.0656 50.1821 42.7547 50.1821ZM54.6337 29.5463C53.1589 29.5463 51.9632 28.3506 51.9632 26.8758C51.9632 25.4009 53.1589 24.2052 54.6337 24.2052C56.1086 24.2052 57.3043 25.4009 57.3043 26.8758C57.3037 28.3506 56.1086 29.5463 54.6337 29.5463Z" fill="white"/>
<path d="M42.7549 0C21.3544 0 4 17.3544 4 38.7549C4 60.1553 21.3544 77.5097 42.7549 77.5097C64.1553 77.5097 81.5097 60.1553 81.5097 38.7549C81.5097 17.3544 64.1553 0 42.7549 0ZM64.8744 47.9297C64.7668 50.2987 64.3901 51.916 63.8401 53.3317C62.684 56.321 60.321 58.684 57.3317 59.8401C55.9166 60.3901 54.2987 60.7662 51.9303 60.8744C49.5572 60.9826 48.7991 61.0086 42.7555 61.0086C36.7112 61.0086 35.9537 60.9826 33.58 60.8744C31.2117 60.7662 29.5937 60.3901 28.1786 59.8401C26.6931 59.2813 25.3484 58.4055 24.2367 57.2731C23.1048 56.1619 22.229 54.8166 21.6702 53.3317C21.1202 51.9166 20.7435 50.2987 20.6359 47.9303C20.5265 45.5566 20.5011 44.7985 20.5011 38.7549C20.5011 32.7112 20.5265 31.9531 20.6353 29.58C20.743 27.2111 21.1191 25.5937 21.669 24.178C22.2278 22.6931 23.1042 21.3478 24.2367 20.2367C25.3478 19.1042 26.6931 18.2284 28.178 17.6696C29.5937 17.1196 31.2111 16.7435 33.58 16.6353C35.9531 16.5271 36.7112 16.5011 42.7549 16.5011C48.7985 16.5011 49.5566 16.5271 51.9297 16.6359C54.2987 16.7435 55.916 17.1196 57.3317 17.669C58.8166 18.2278 60.1619 19.1042 61.2737 20.2367C62.4055 21.3484 63.2819 22.6931 63.8401 24.178C64.3907 25.5937 64.7668 27.2111 64.875 29.58C64.9832 31.9531 65.0086 32.7112 65.0086 38.7549C65.0086 44.7985 64.9832 45.5566 64.8744 47.9297Z" fill="white"/>
</g>
<defs>
<filter id="filter0_d" x="0" y="0" width="85.5097" height="85.5097" filterUnits="userSpaceOnUse" color-interpolation-filters="sRGB">
<feFlood flood-opacity="0" result="BackgroundImageFix"/>
<feColorMatrix in="SourceAlpha" type="matrix" values="0 0 0 0 0 0 0 0 0 0 0 0 0 0 0 0 0 0 127 0"/>
<feOffset dy="4"/>
<feGaussianBlur stdDeviation="2"/>
<feColorMatrix type="matrix" values="0 0 0 0 0 0 0 0 0 0 0 0 0 0 0 0 0 0 0.25 0"/>
<feBlend mode="normal" in2="BackgroundImageFix" result="effect1_dropShadow"/>
<feBlend mode="normal" in="SourceGraphic" in2="effect1_dropShadow" result="shape"/>
</filter>
<clipPath id="clip0">
<rect width="77.5097" height="77.5097" fill="white" transform="translate(4)"/>
</clipPath>
</defs>
</svg>
