<svg width="233" height="229" viewBox="0 0 233 229" fill="none" xmlns="http://www.w3.org/2000/svg">
<path fill-rule="evenodd" clip-rule="evenodd" d="M11.832 17.8924H221.168V13.418C221.168 8.49805 217.072 4.47266 212.066 4.47266H20.9336C15.9277 4.47266 11.832 8.49979 11.832 13.418V17.8924Z" fill="#7D49AA"/>
<path fill-rule="evenodd" clip-rule="evenodd" d="M221.168 17.8924H11.832V134.18H221.168V17.8924Z" fill="#FFE7C3"/>
<path fill-rule="evenodd" clip-rule="evenodd" d="M221.168 134.18H11.832V147.598H4.55078V161.017C4.55078 165.936 8.64648 169.963 13.6523 169.963H219.348C224.354 169.963 228.449 165.937 228.449 161.017V147.598H221.168V134.18Z" fill="#7D49AA"/>
<path fill-rule="evenodd" clip-rule="evenodd" d="M94.9299 82.4891C99.0061 86.4952 104.232 89.3728 110.077 90.6045V95.7411H103.886C100.339 95.7411 97.4631 98.5662 97.4631 102.052C97.4631 105.539 100.339 108.364 103.886 108.364H110.077V114.451C110.077 117.937 112.954 120.762 116.5 120.762C120.046 120.762 122.923 117.937 122.923 114.451V108.364H129.114C132.661 108.364 135.537 105.539 135.537 102.053C135.537 98.5662 132.661 95.7411 129.114 95.7411H122.923V90.6045C128.767 89.3728 133.994 86.4952 138.07 82.4891C143.59 77.0642 147.004 69.569 147.004 61.2894C147.004 53.0115 143.59 45.5163 138.07 40.0914C132.549 34.6648 124.922 31.3086 116.5 31.3086C108.077 31.3086 100.451 34.6648 94.9317 40.0914C89.4103 45.5163 85.9955 53.0115 85.9955 61.2894C85.9955 69.5673 89.4103 77.0625 94.9299 82.4891ZM128.988 73.563C125.792 76.7043 121.378 78.6471 116.5 78.6471C111.622 78.6471 107.206 76.7043 104.012 73.563C100.816 70.4234 98.839 66.0835 98.839 61.2894C98.839 56.497 100.816 52.1571 104.012 49.0158C107.206 45.8744 111.622 43.9334 116.5 43.9334C121.376 43.9334 125.792 45.8762 128.988 49.0158C132.184 52.1571 134.159 56.497 134.159 61.2894C134.161 66.0835 132.184 70.4234 128.988 73.563Z" fill="#7D49AA"/>
<path d="M228.449 143.125H225.718V13.4179C225.718 6.01886 219.594 0 212.066 0H57.3397C54.8261 0 52.789 2.00221 52.789 4.47265C52.789 6.94309 54.8261 8.94529 57.3397 8.94529H212.066C214.576 8.94529 216.617 10.9527 216.617 13.4179V13.4197H16.3828V13.4179C16.3828 10.9527 18.4235 8.94529 20.9336 8.94529H25.9554C28.469 8.94529 30.5062 6.94309 30.5062 4.47265C30.5062 2.00221 28.469 0 25.9554 0H20.9336C13.4052 0 7.28124 6.01886 7.28124 13.4179V143.125H4.55077C2.03718 143.125 0 145.129 0 147.597V161.017C0 168.416 6.12399 174.435 13.6523 174.435H219.347C226.876 174.435 233 168.416 233 161.017V147.597C233 145.129 230.962 143.125 228.449 143.125ZM216.617 22.365V129.707H16.3828V22.365H216.617ZM223.898 161.017C223.898 163.482 221.857 165.49 219.347 165.49H13.6523C11.1423 165.49 9.10154 163.482 9.10154 161.017V152.07H89.9755C91.8527 157.276 96.9154 161.015 102.847 161.015H130.152C136.086 161.015 141.147 157.276 143.024 152.07H175.66C178.173 152.07 180.211 150.068 180.211 147.597C180.211 145.129 178.173 143.125 175.66 143.125H139.254C136.74 143.125 134.703 145.129 134.703 147.597C134.703 150.064 132.662 152.07 130.152 152.07H102.847C100.339 152.07 98.2967 150.064 98.2967 147.597C98.2967 145.129 96.2595 143.125 93.7459 143.125H16.3828V138.652H216.617V143.125H207.046C204.532 143.125 202.495 145.129 202.495 147.597C202.495 150.068 204.532 152.07 207.046 152.07H223.898V161.017Z" fill="black"/>
<path d="M39.151 8.94531C41.6646 8.94531 43.7018 6.9431 43.7018 4.47266C43.7018 2.00221 41.6646 0 39.151 0H39.1492C36.6374 0 34.6002 2.00221 34.6002 4.47266C34.6002 6.9431 36.6392 8.94531 39.151 8.94531Z" fill="black"/>
<path d="M193.847 143.125C191.334 143.125 189.297 145.129 189.297 147.598C189.297 150.068 191.334 152.07 193.847 152.07H193.851C196.364 152.07 198.4 150.068 198.4 147.598C198.4 145.129 196.361 143.125 193.847 143.125Z" fill="black"/>
<path d="M100.794 76.7253C104.988 80.8485 110.566 83.1198 116.5 83.1198C122.434 83.1198 128.012 80.8485 132.206 76.7253C136.401 72.6038 138.712 67.1213 138.712 61.2894C138.712 55.4592 136.401 49.9767 132.206 45.8535C128.012 41.7302 122.434 39.459 116.5 39.459C110.566 39.459 104.99 41.7302 100.794 45.8535C96.5992 49.9767 94.29 55.4592 94.29 61.2894C94.2883 67.1213 96.5992 72.602 100.794 76.7253ZM107.23 52.1781C109.706 49.7461 112.998 48.4043 116.5 48.4043C120.002 48.4043 123.294 49.7443 125.77 52.1781C128.247 54.6118 129.61 57.8475 129.61 61.2894C129.61 64.7312 128.247 67.9669 125.77 70.4007C123.296 72.8344 120.004 74.1745 116.5 74.1745C112.998 74.1745 109.706 72.8344 107.23 70.4007C104.753 67.9669 103.39 64.7312 103.39 61.2894C103.39 57.8475 104.753 54.6118 107.23 52.1781Z" fill="black"/>
<path d="M91.7124 85.6514C94.2633 88.1585 97.1609 90.2446 100.309 91.8572C96.009 93.3178 92.9123 97.3362 92.9123 102.053C92.9123 107.999 97.8346 112.837 103.886 112.837H105.527V114.451C105.527 120.398 110.451 125.236 116.5 125.236C122.551 125.236 127.473 120.398 127.473 114.451V112.837H129.114C135.165 112.837 140.088 107.999 140.088 102.053C140.088 97.3362 136.991 93.3178 132.691 91.8572C135.839 90.2446 138.737 88.1585 141.287 85.6514C147.909 79.1433 151.555 70.4915 151.555 61.2894C151.555 52.0872 147.909 43.4354 141.287 36.9291C134.666 30.4211 125.863 26.8359 116.5 26.8359C107.137 26.8359 98.3341 30.4211 91.7142 36.9291C85.0924 43.4354 81.4447 52.0872 81.4447 61.2894C81.4447 70.4915 85.0907 79.1433 91.7124 85.6514ZM98.1493 43.2537C103.05 38.4351 109.567 35.7812 116.5 35.7812C123.433 35.7812 129.95 38.4351 134.852 43.2537C139.753 48.0706 142.454 54.4773 142.454 61.2894C142.454 68.1032 139.753 74.5082 134.852 79.325C131.302 82.8158 126.848 85.2024 121.968 86.2297C119.87 86.6717 118.372 88.4957 118.372 90.6027V95.7411C118.372 98.2097 120.409 100.214 122.923 100.214H129.114C130.147 100.214 130.986 101.038 130.986 102.052C130.986 103.065 130.147 103.89 129.114 103.89H122.923C120.409 103.89 118.372 105.894 118.372 108.362V114.449C118.372 115.464 117.531 116.289 116.5 116.289C115.469 116.289 114.63 115.463 114.63 114.449V108.362C114.63 105.894 112.593 103.89 110.079 103.89H103.886C102.853 103.89 102.014 103.065 102.014 102.052C102.014 101.038 102.853 100.214 103.886 100.214H110.077C112.591 100.214 114.628 98.2097 114.628 95.7411V90.6027C114.628 88.4939 113.13 86.6717 111.032 86.2297C106.154 85.2024 101.699 82.814 98.1493 79.325C93.2465 74.5082 90.5463 68.1014 90.5463 61.2894C90.5463 54.4773 93.2465 48.0723 98.1493 43.2537Z" fill="black"/>
</svg>
