<svg width="86" height="86" viewBox="0 0 86 86" fill="none" xmlns="http://www.w3.org/2000/svg">
<g clip-path="url(#clip0)" filter="url(#filter0_d)">
<path d="M42.8638 0.427979C21.4633 0.427979 4.10889 17.7824 4.10889 39.1828C4.10889 60.5833 21.4633 77.9377 42.8638 77.9377C64.2642 77.9377 81.6186 60.5833 81.6186 39.1828C81.6186 17.7824 64.2642 0.427979 42.8638 0.427979ZM60.5588 30.6449C60.5759 31.0263 60.5842 31.4095 60.5842 31.7945C60.5842 43.5488 51.6371 57.1032 35.2749 57.1038H35.2755H35.2749C30.2514 57.1038 25.5767 55.6313 21.6401 53.108C22.3361 53.1902 23.0446 53.231 23.7619 53.231C27.9297 53.231 31.7653 51.8094 34.8101 49.4233C30.9161 49.3511 27.6329 46.7794 26.4998 43.2448C27.0421 43.3489 27.5998 43.4057 28.1716 43.4057C28.9835 43.4057 29.77 43.2963 30.5175 43.0923C26.4472 42.2774 23.3811 38.6802 23.3811 34.3728C23.3811 34.3326 23.3811 34.2965 23.3822 34.2592C24.5809 34.9257 25.9517 35.3266 27.4111 35.3716C25.0227 33.7779 23.4526 31.0535 23.4526 27.9673C23.4526 26.3375 23.8932 24.8106 24.6572 23.496C29.0438 28.8785 35.5996 32.4184 42.9927 32.7903C42.8401 32.1387 42.7614 31.4598 42.7614 30.762C42.7614 25.8514 46.7454 21.8675 51.6577 21.8675C54.2165 21.8675 56.5275 22.949 58.1508 24.6782C60.1774 24.2784 62.0803 23.538 63.7994 22.5191C63.1341 24.5954 61.7243 26.3375 59.8876 27.4392C61.6871 27.2239 63.402 26.7467 64.9957 26.0383C63.8053 27.8224 62.2956 29.3895 60.5588 30.6449Z" fill="white"/>
</g>
<defs>
<filter id="filter0_d" x="0.108887" y="0.427979" width="85.5097" height="85.5097" filterUnits="userSpaceOnUse" color-interpolation-filters="sRGB">
<feFlood flood-opacity="0" result="BackgroundImageFix"/>
<feColorMatrix in="SourceAlpha" type="matrix" values="0 0 0 0 0 0 0 0 0 0 0 0 0 0 0 0 0 0 127 0"/>
<feOffset dy="4"/>
<feGaussianBlur stdDeviation="2"/>
<feColorMatrix type="matrix" values="0 0 0 0 0 0 0 0 0 0 0 0 0 0 0 0 0 0 0.25 0"/>
<feBlend mode="normal" in2="BackgroundImageFix" result="effect1_dropShadow"/>
<feBlend mode="normal" in="SourceGraphic" in2="effect1_dropShadow" result="shape"/>
</filter>
<clipPath id="clip0">
<rect width="77.5097" height="77.5097" fill="white" transform="translate(4.10889 0.427979)"/>
</clipPath>
</defs>
</svg>
