<svg width="81" height="78" viewBox="0 0 81 78" fill="none" xmlns="http://www.w3.org/2000/svg">
<path d="M53.3957 75.9692C52.974 76.1064 52.5494 76.2395 52.1221 76.3619C52.5508 76.2382 52.974 76.1051 53.3957 75.9692Z" fill="#F3C677"/>
<path d="M55.5114 75.2216C55.0561 75.3964 54.6009 75.5685 54.1372 75.7272C54.6009 75.5672 55.0575 75.3964 55.5114 75.2216Z" fill="#F3C677"/>
<path d="M40.5 78C62.8675 78 81 60.5391 81 39C81 17.4609 62.8675 0 40.5 0C18.1325 0 0 17.4609 0 39C0 60.5391 18.1325 78 40.5 78Z" fill="#F9F9F9"/>
<path d="M51.3053 76.5852C50.892 76.6955 50.4758 76.8004 50.0554 76.8985C50.4758 76.8004 50.892 76.6955 51.3053 76.5852Z" fill="#F3C677"/>
<path d="M37.5658 77.887C37.0714 77.8534 36.5785 77.8171 36.0911 77.766C36.5799 77.8171 37.0728 77.8534 37.5658 77.887Z" fill="#F3C677"/>
<path d="M30.9435 76.8972C30.5246 76.799 30.1084 76.6941 29.6936 76.5839C30.1084 76.6955 30.5246 76.8004 30.9435 76.8972Z" fill="#F3C677"/>
<path d="M35.2534 77.6638C34.8107 77.6087 34.3694 77.5509 33.9309 77.4823C34.368 77.5509 34.8107 77.6074 35.2534 77.6638Z" fill="#F3C677"/>
<path d="M40.5001 78C39.7543 78 39.0155 77.9771 38.2795 77.9395C39.0155 77.9771 39.7543 78 40.5001 78Z" fill="#F3C677"/>
<path d="M33.0662 77.333C32.6417 77.2577 32.2185 77.177 31.7996 77.0883C32.2185 77.177 32.6417 77.2577 33.0662 77.333Z" fill="#F3C677"/>
<path d="M24.8948 74.9956C24.265 74.7414 23.6421 74.4752 23.0291 74.1927C23.6435 74.4752 24.2664 74.7428 24.8948 74.9956Z" fill="#F3C677"/>
<path d="M26.8615 75.7272C26.3992 75.5672 25.9426 75.3964 25.4873 75.2216C25.9426 75.3964 26.3992 75.5672 26.8615 75.7272Z" fill="#F3C677"/>
<path d="M42.7205 77.9395C41.9845 77.9771 41.2458 78 40.5 78C41.2458 78 41.9845 77.9771 42.7205 77.9395Z" fill="#F3C677"/>
<path d="M44.9091 77.766C44.4203 77.8171 43.9273 77.8534 43.4343 77.887C43.9273 77.8534 44.4203 77.8171 44.9091 77.766Z" fill="#F3C677"/>
<path d="M49.202 77.0883C48.7816 77.177 48.3599 77.2577 47.9353 77.333C48.3585 77.2577 48.7816 77.177 49.202 77.0883Z" fill="#F3C677"/>
<path d="M47.0711 77.481C46.6326 77.5495 46.1912 77.6074 45.7485 77.6625C46.1898 77.6074 46.6326 77.5509 47.0711 77.481Z" fill="#F3C677"/>
<path d="M57.9627 74.1954C57.3524 74.4765 56.7323 74.7428 56.1052 74.9956C56.7323 74.7428 57.3524 74.4778 57.9627 74.1954Z" fill="#F3C677"/>
<path d="M28.8781 76.3619C28.4494 76.2382 28.0263 76.1051 27.6045 75.9692C28.0263 76.1051 28.4494 76.2382 28.8781 76.3619Z" fill="#F3C677"/>
<path d="M56.1051 74.9956C55.9096 75.075 55.7099 75.1449 55.5129 75.2202C55.7085 75.1449 55.9082 75.075 56.1051 74.9956Z" fill="#F3C677"/>
<path d="M58.0185 74.1713C58.0003 74.1793 57.9808 74.1874 57.9626 74.1955C57.9808 74.1874 58.0003 74.1807 58.0185 74.1713Z" fill="#F3C677"/>
<path d="M31.798 77.0882C31.5118 77.0277 31.2269 76.9645 30.9434 76.8986C31.2269 76.9645 31.5118 77.0277 31.798 77.0882Z" fill="#F3C677"/>
<path d="M33.9292 77.4809C33.6401 77.4352 33.3524 77.3841 33.0647 77.333C33.3538 77.3841 33.6401 77.4366 33.9292 77.4809Z" fill="#F3C677"/>
<path d="M38.2796 77.9394C38.0407 77.9273 37.8033 77.9031 37.5659 77.887C37.8047 77.9031 38.0407 77.9273 38.2796 77.9394Z" fill="#F3C677"/>
<path d="M36.0911 77.766C35.8104 77.7364 35.5325 77.6988 35.2532 77.6638C35.5325 77.6988 35.8104 77.7364 36.0911 77.766Z" fill="#F3C677"/>
<path d="M23.0306 74.1942C23.0153 74.1875 22.9985 74.1808 22.9832 74.1741C22.9985 74.1808 23.0153 74.1875 23.0306 74.1942Z" fill="#F3C677"/>
<path d="M43.4343 77.887C43.1955 77.9031 42.9595 77.9273 42.7207 77.9394C42.9595 77.9273 43.1955 77.9031 43.4343 77.887Z" fill="#F3C677"/>
<path d="M52.1222 76.3621C51.8512 76.4401 51.5789 76.5127 51.3052 76.5853C51.5789 76.5127 51.8512 76.4401 52.1222 76.3621Z" fill="#F3C677"/>
<path d="M54.1388 75.7273C53.893 75.812 53.6444 75.8887 53.3972 75.9694C53.6444 75.8887 53.893 75.812 54.1388 75.7273Z" fill="#F3C677"/>
<path d="M25.4886 75.2215C25.2917 75.1462 25.092 75.0749 24.8965 74.9969C25.092 75.0749 25.2917 75.1449 25.4886 75.2215Z" fill="#F3C677"/>
<path d="M27.6044 75.9694C27.3572 75.8887 27.1072 75.812 26.8628 75.7273C27.1072 75.812 27.3558 75.8887 27.6044 75.9694Z" fill="#F3C677"/>
<path d="M45.7469 77.6638C45.4676 77.6988 45.1896 77.7378 44.9089 77.766C45.1896 77.7364 45.4676 77.6988 45.7469 77.6638Z" fill="#F3C677"/>
<path d="M50.0568 76.8972C49.7733 76.9631 49.4884 77.0263 49.2021 77.0868C49.4884 77.0277 49.7733 76.9645 50.0568 76.8972Z" fill="#F3C677"/>
<path d="M47.9341 77.333C47.6464 77.3841 47.3601 77.4366 47.0696 77.4809C47.3601 77.4366 47.6464 77.3841 47.9341 77.333Z" fill="#F3C677"/>
<path d="M29.6952 76.5853C29.4228 76.5127 29.1491 76.4401 28.8782 76.3621C29.1491 76.4401 29.4214 76.5127 29.6952 76.5853Z" fill="#F3C677"/>
<path d="M49.7704 41.6816C54.2826 38.7889 57.2587 33.8521 57.2587 28.2414C57.2587 19.3293 49.755 12.1035 40.5001 12.1035C31.2451 12.1035 23.7414 19.3293 23.7414 28.2414C23.7414 33.8521 26.7175 38.7889 31.2297 41.6816C31.2297 41.6816 31.2311 41.683 31.2325 41.683C31.2311 41.683 31.2311 41.6816 31.2311 41.6816C20.4302 44.8164 12.0202 53.2579 9.31226 63.878L9.31365 63.8794C9.75496 64.3918 10.213 64.892 10.6809 65.3829C10.794 65.5026 10.9127 65.6169 11.0286 65.7339C11.3889 66.1024 11.7534 66.4655 12.1277 66.8205C12.2827 66.9671 12.4405 67.1083 12.5983 67.2522C12.9447 67.5696 13.2952 67.8829 13.6527 68.1882C13.8301 68.3388 14.0103 68.4881 14.189 68.636C14.5395 68.9252 14.8943 69.2089 15.256 69.486C15.4459 69.6325 15.6372 69.7764 15.8286 69.9203C16.1945 70.192 16.5659 70.4556 16.9416 70.7138C17.1357 70.8469 17.3271 70.9827 17.524 71.1132C17.9206 71.3768 18.3242 71.6296 18.7306 71.8797C18.9135 71.9914 19.0923 72.107 19.2767 72.2173C19.7459 72.4957 20.2235 72.762 20.7053 73.0229C20.8324 73.0914 20.9567 73.1654 21.0852 73.2326C21.708 73.5608 22.3407 73.8755 22.9831 74.1727C22.9985 74.1794 23.0152 74.1861 23.0306 74.1929C23.6437 74.4753 24.2665 74.7429 24.8964 74.9957C25.0919 75.0751 25.2916 75.145 25.4885 75.2203C25.9438 75.3951 26.3991 75.5673 26.8627 75.726C27.1085 75.8107 27.3571 75.8873 27.6043 75.968C28.0261 76.1052 28.4506 76.2383 28.8779 76.3607C29.1489 76.4387 29.4212 76.5113 29.6949 76.584C30.1083 76.6942 30.5245 76.7991 30.9448 76.8973C31.2283 76.9632 31.5132 77.0264 31.7995 77.0869C32.2199 77.1757 32.6417 77.2564 33.0662 77.3317C33.3539 77.3828 33.6402 77.4352 33.9307 77.4796C34.3692 77.5482 34.8105 77.606 35.2532 77.6612C35.5325 77.6961 35.8104 77.7351 36.0911 77.7634C36.5799 77.8145 37.0729 77.8508 37.5659 77.8844C37.8047 77.9005 38.0407 77.9247 38.2795 77.9369C39.0155 77.9772 39.7543 78.0001 40.5001 78.0001C41.2458 78.0001 41.9846 77.9772 42.7206 77.9395C42.9594 77.9274 43.1968 77.9032 43.4342 77.8871C43.9286 77.8535 44.4216 77.8172 44.909 77.7661C45.1897 77.7365 45.4676 77.6988 45.7469 77.6638C46.1896 77.6087 46.6309 77.5509 47.0694 77.4823C47.3585 77.4366 47.6462 77.3855 47.9339 77.3344C48.3585 77.2591 48.7816 77.1784 49.2006 77.0896C49.4869 77.0291 49.7718 76.9659 50.0553 76.9C50.4742 76.8018 50.8904 76.6969 51.3052 76.5866C51.5775 76.514 51.8512 76.4414 52.1222 76.3634C52.5509 76.2397 52.9741 76.1065 53.3958 75.9707C53.643 75.89 53.893 75.8134 54.1374 75.7286C54.5996 75.5686 55.0563 75.3978 55.5116 75.223C55.7085 75.1477 55.9082 75.0764 56.1037 74.9984C56.7308 74.7456 57.3508 74.4806 57.9611 74.1982C57.9793 74.1902 57.9988 74.1821 58.017 74.174C58.6594 73.8768 59.2921 73.5621 59.9149 73.234C60.0434 73.1668 60.1677 73.0928 60.2948 73.0242C60.7766 72.7633 61.2542 72.497 61.7234 72.2186C61.9078 72.1097 62.088 71.9941 62.2695 71.8811C62.6759 71.631 63.0795 71.3768 63.4761 71.1145C63.6716 70.9841 63.8644 70.8496 64.0585 70.7151C64.4342 70.4556 64.8056 70.192 65.1715 69.9217C65.3643 69.7791 65.5542 69.6339 65.7441 69.4873C66.1044 69.2103 66.4606 68.9265 66.8111 68.6374C66.9912 68.4894 67.1714 68.3402 67.3474 68.1895C67.7049 67.8843 68.0554 67.5709 68.4018 67.2535C68.5582 67.1096 68.7174 66.9671 68.8724 66.8219C69.2467 66.4668 69.6126 66.1037 69.9715 65.7352C70.086 65.6169 70.2047 65.5026 70.3192 65.3842C70.7871 64.8934 71.2451 64.3931 71.6865 63.8807L71.6879 63.8794C68.9813 53.2579 60.5713 44.8164 49.7704 41.6816Z" fill="#F3C677"/>
</svg>
