<svg width="546" height="414" viewBox="0 0 546 414" fill="none" xmlns="http://www.w3.org/2000/svg">
<path d="M42.1393 213.603C41.7532 215.368 41.7742 217.186 42.2008 218.944C43.6954 223.758 49.9905 225.808 55.5031 226.633C63.2839 227.796 71.6099 227.898 78.6787 224.764C81.4317 223.444 84.0372 221.892 86.4596 220.13L96.3945 213.359C98.0532 212.388 99.4594 211.111 100.518 209.613C101.202 208.328 101.574 206.927 101.608 205.505C101.872 201.871 101.311 198.226 99.9585 194.791C98.6057 191.355 96.4892 188.199 93.7363 185.513C90.9834 182.827 87.6508 180.666 83.9391 179.16C80.2273 177.654 76.213 176.834 72.1374 176.75C71.0465 176.676 69.9505 176.807 68.9196 177.135C67.7687 177.669 66.7399 178.391 65.8864 179.263C60.5057 183.929 53.5161 184.761 50.0608 190.911C46.0406 198.034 43.364 205.701 42.1393 213.603Z" fill="#FFC095"/>
<path d="M81.2019 38.2845C74.9068 41.5362 69.8251 46.3824 65.3763 51.5192C62.0002 55.4464 58.8527 59.6642 57.8856 64.5104C56.4789 71.5793 59.5473 79.96 54.2018 85.3088C51.7928 87.7123 48.1001 88.8983 45.8406 91.4274C44.2229 93.2339 43.5195 95.5431 42.8601 97.7816C41.6029 102.023 40.328 106.359 40.6621 110.734C41.1193 116.734 44.557 122.287 45.2515 128.272C46.078 135.341 43.0096 142.332 39.9764 148.945L34.0242 162.031C39.4664 160.318 45.4537 161.049 51.1773 161.355C71.478 162.439 92.2974 158.009 111.965 162.651C114.321 163.209 116.642 163.892 118.999 164.363C131.536 166.853 144.495 163.358 156.716 159.894C158.475 159.407 160.558 158.425 160.33 156.815C160.175 156.189 159.835 155.611 159.345 155.142C150.122 144.555 142.596 131.579 144.574 118.227C146.333 106.618 155.125 95.7395 152.813 84.2171C151.476 77.5801 146.658 72.027 142.992 66.1126C140.75 62.4525 138.939 58.5724 136.336 55.1165C133.734 51.6605 130.296 48.5738 126.929 45.5812C123.562 42.5887 120.018 39.4548 115.886 37.2084C106.584 32.1424 90.495 33.5012 81.2019 38.2845Z" fill="#D67820"/>
<path d="M88.086 133.896C88.1299 135.685 87.7305 137.461 86.9167 139.096C85.7913 140.965 83.6637 142.159 81.6415 143.259C71.941 148.521 62.182 153.7 52.3643 158.795C58.123 172.045 64.0488 185.555 74.2387 196.496C93.581 217.208 126.41 225.408 156.303 221.567C160.796 220.986 165.517 220.043 168.744 217.2C171.381 214.907 172.603 211.702 173.535 208.56C176.623 198.049 176.972 187.046 174.555 176.396C172.797 168.872 169.28 161.08 161.974 157.027C159.201 155.626 156.249 154.529 153.182 153.76L128.336 146.55C127.114 146.196 125.777 145.764 125.179 144.735C124.827 143.945 124.736 143.081 124.916 142.245L126.832 124.337C127.237 120.583 127.527 116.436 125.021 113.404C122.937 110.875 119.377 109.728 115.992 108.903C110.831 107.647 93.8623 103.052 89.8884 107.388C87.8398 109.634 89.0092 117.865 88.8421 120.74L88.086 133.896Z" fill="#FFC095"/>
<path d="M158.193 153.626C167.776 155.692 178.23 159.007 182.679 166.869C185.316 171.582 185.316 177.017 185.264 182.256L184.384 262.567L160.101 263.455C162.963 249.341 164.726 235.066 165.376 220.734C165.775 214.739 165.596 208.724 164.84 202.756C162.914 189.772 156.488 177.794 148.865 166.751C147.106 164.23 137.734 154.969 139.194 151.985C140.97 148.474 154.536 152.841 158.193 153.626Z" fill="#FFC095"/>
<path opacity="0.05" d="M177.052 194.776C178.705 197.745 179.461 201.059 180.208 204.279C181.008 207.751 181.809 211.27 181.606 214.812C181.388 217.249 180.932 219.664 180.244 222.03L177.606 232.485C176.533 236.663 175.39 240.983 172.471 244.376C172.202 244.756 171.805 245.051 171.337 245.217C170.914 245.298 170.474 245.265 170.071 245.122C167.17 244.282 165.086 241.894 164.093 239.318C163.099 236.742 163.055 233.961 163.073 231.228C163.134 219.674 164.189 208.089 163.003 196.559C162.668 193.307 159.609 185.146 165.746 185.507C170.221 185.759 175.267 191.555 177.052 194.776Z" fill="black"/>
<path d="M178.793 338.637C178.793 339.014 178.793 339.422 178.731 339.776C178.731 340.742 178.643 341.708 178.599 342.698C177.65 364.769 177.835 392.558 170.15 413.953H53.0678C52.6897 412.9 52.3732 411.824 52.0567 410.764C47.142 394.176 42.1921 377.179 43.7923 360.08C43.9572 357.818 44.3277 355.572 44.9001 353.364C44.9001 353.238 44.9704 353.113 45.0144 352.987C45.3428 351.819 45.8455 350.697 46.509 349.649C46.709 349.331 46.9353 349.026 47.186 348.738C47.3266 348.581 47.4761 348.424 47.6256 348.282C48.0916 347.83 48.6457 347.458 49.2609 347.183C52.3205 345.847 60.4443 347.622 65.0073 348.282C65.6139 348.369 66.159 348.431 66.625 348.471L79.347 349.484L82.6264 349.743L107.578 351.73L110.928 351.997C118.761 352.602 126.621 353.097 134.473 352.634C150.219 351.699 162.932 338.339 178.696 338.598L178.793 338.637Z" fill="#0E0D15"/>
<path opacity="0.05" d="M52.5753 246.945C53.3314 249.081 53.2523 251.374 53.4545 253.605C54.1491 260.8 57.912 267.484 59.1869 274.616C61.1914 285.832 56.9361 297.095 53.0325 307.91C49.1289 318.726 45.5945 329.738 45.9989 341.025C46.2803 348.094 48.3552 355.406 53.8238 360.488C61.5167 367.643 73.72 368.672 84.8155 369.261L124.836 371.39C132.67 371.806 140.574 372.222 148.32 371.115C156.066 370.007 163.75 367.235 169.139 362.145C172.293 359.045 174.709 355.406 176.243 351.447C177.767 347.877 178.588 344.099 178.67 340.279C178.67 335.754 177.456 331.317 176.437 326.887C172.041 307.659 171.803 287.882 171.601 268.254C171.513 259.221 171.425 250.102 173.632 241.289C174.775 236.726 176.516 232.288 177.703 227.733C181.633 212.629 178.371 194.988 165.121 184.966C163.978 184.102 162.484 183.253 161.077 183.756C160.04 184.125 159.486 185.107 158.967 185.994C156.487 190.193 153.018 193.861 148.798 196.746C144.579 199.632 139.709 201.666 134.525 202.709C128.977 203.793 123.219 203.69 117.557 203.313C110.154 202.826 102.681 201.845 95.8845 199.19C89.0883 196.535 82.9515 192.027 79.9095 185.979C72.3045 190.958 73.2628 201.295 68.9811 208.796C66.2204 213.626 61.3409 217.082 56.224 219.792C52.25 221.905 43.9767 223.201 41.2776 226.625C35.7035 233.812 50.4301 240.865 52.5753 246.945Z" fill="black"/>
<path d="M52.5753 244.981C53.3314 247.117 53.2523 249.411 53.4545 251.642C54.1491 258.836 57.912 265.52 59.1869 272.652C61.1915 283.868 56.9361 295.131 53.0325 305.947C49.1289 316.762 45.5945 327.774 45.9989 339.061C46.2803 346.13 48.3552 353.442 53.8238 358.524C61.5959 365.695 73.7903 366.716 84.8858 367.266L124.907 369.395C132.74 369.811 140.644 370.227 148.39 369.12C156.136 368.012 163.82 365.24 169.21 360.15C172.363 357.05 174.78 353.411 176.313 349.452C177.837 345.882 178.658 342.104 178.74 338.283C178.74 333.759 177.527 329.322 176.507 324.892C172.111 305.664 171.874 285.887 171.671 266.259C171.583 257.226 171.495 248.107 173.702 239.294C174.845 234.731 176.586 230.293 177.773 225.738C181.703 210.634 178.441 192.993 165.192 182.971C164.049 182.107 162.554 181.258 161.147 181.761C160.11 182.13 159.556 183.112 159.037 183.999C156.562 188.205 153.095 191.881 148.875 194.773C144.655 197.666 139.784 199.706 134.596 200.753C129.048 201.837 123.289 201.735 117.627 201.358C110.224 200.871 102.751 199.889 95.9549 197.234C89.1587 194.579 83.0219 190.071 79.9799 184.023C72.3748 189.003 73.3331 199.339 69.0514 206.84C66.2908 211.67 61.4112 215.126 56.2943 217.836C52.3204 219.949 44.0471 221.245 41.348 224.67C35.7035 231.848 50.4301 238.902 52.5753 244.981Z" fill="#480082"/>
<path opacity="0.05" d="M151.3 264.601C151.3 262.504 152.426 260.548 153.586 258.726C155.186 256.229 156.904 253.794 158.738 251.422C160.055 249.496 161.796 247.828 163.855 246.52C165.992 245.327 168.849 244.95 171.029 246.049C171.507 246.388 172.078 246.605 172.682 246.678C173.562 246.678 174.142 245.892 174.924 245.594C176.331 245.012 177.949 245.939 178.933 247.015C179.918 248.091 180.692 249.372 182.107 249.992C182.617 250.212 183.189 250.314 183.707 250.518C185.51 251.225 186.468 252.961 187.277 254.571C187.919 255.636 188.293 256.812 188.376 258.019C188.376 260.124 186.618 261.844 184.956 263.352L180.701 267.28C179.621 268.378 178.361 269.323 176.964 270.084C176.261 270.459 175.472 270.688 174.657 270.755C173.841 270.822 173.019 270.724 172.252 270.469C171.878 270.254 171.437 270.152 170.994 270.178C170.663 270.283 170.379 270.481 170.185 270.743C169.244 271.775 168.363 272.85 167.548 273.964C166.858 275.141 165.86 276.152 164.638 276.909C163.336 277.553 161.376 277.341 160.787 276.124C160.716 275.883 160.58 275.662 160.391 275.48C159.855 275.103 159.169 275.715 158.545 275.951C157.499 276.351 156.268 275.566 155.907 274.6C155.659 273.603 155.726 272.564 156.101 271.6C155.318 271.034 154.175 271.372 153.164 271.419C151.08 271.521 151.503 270.327 151.555 269.243C151.687 267.649 151.318 266.172 151.3 264.601Z" fill="black"/>
<path opacity="0.05" d="M89.8973 108.306C88.4114 109.924 88.6136 114.676 88.7719 118.289C89.2554 118.69 89.739 119.075 90.2401 119.46C97.9117 125.169 107.514 128.401 117.495 128.634C119.489 128.775 121.492 128.506 123.351 127.848C124.708 127.248 125.907 126.396 126.867 125.351V125.256C127.272 121.502 127.562 117.355 125.056 114.323C122.973 111.794 119.412 110.647 116.027 109.822C110.849 108.566 93.8712 103.971 89.8973 108.306Z" fill="black"/>
<path opacity="0.03" d="M59.9255 207.154C59.4508 210.862 57.6308 214.302 55.8372 217.671L45.4451 237.182C43.7923 234.66 42.0778 231.896 42.4647 228.997C42.7438 227.578 43.2751 226.207 44.0384 224.937L53.1205 207.72C53.8063 206.424 56.1362 199.166 57.7012 199.08C60.0398 198.994 60.0926 205.874 59.9255 207.154Z" fill="black"/>
<path opacity="0.05" d="M87.7871 70.0792C82.4416 77.7372 81.4481 87.461 83.9977 96.1951C85.9056 102.746 89.7037 109.548 87.1365 115.941C85.2023 120.74 79.8128 125.523 82.4856 130.032C83.0834 131.037 84.0505 131.87 84.4022 132.962C85 134.823 83.6549 136.669 82.7229 138.413C77.8522 147.492 83.6725 157.931 86.5211 167.67C88.6311 174.881 89.0619 182.382 89.484 189.827L84.2088 177.787C82.0273 187.89 77.311 197.421 70.4142 205.662C74.288 205.701 78.1361 206.229 81.8437 207.233C79.1001 206.938 76.3326 207.575 74.091 209.019C71.8494 210.463 70.2976 212.607 69.7439 215.026C69.1903 217.445 69.6752 219.961 71.1024 222.075C72.5296 224.189 74.7947 225.746 77.4477 226.437C72.0495 227.505 66.4754 224.222 63.8905 219.855C61.3057 215.488 61.1035 210.327 61.4112 205.395L57.0152 205.717C61.4102 196.283 63.2797 186.063 62.475 175.87C62.1146 171.362 60.4529 166.036 55.6173 164.709L54.1666 176.671L48.2936 166.052C47.9131 165.119 47.1914 164.327 46.2451 163.806C45.525 163.605 44.7907 163.448 44.0471 163.335C41.7348 162.698 40.838 160.004 41.5589 157.946C42.2799 155.889 44.135 154.326 45.9022 152.849C51.8807 147.854 57.8417 142.528 61.0771 135.813C64.084 129.576 64.5148 122.625 64.8313 115.839C65.2064 107.885 65.4995 99.9259 65.7105 91.9615C65.8599 85.678 65.9566 79.3474 67.4689 73.2209C70.1064 62.8453 77.14 53.2079 87.4882 47.9062C97.8363 42.6045 111.341 42.1253 121.522 47.6313C127.676 50.9458 132.222 56.0669 136.662 61.078L149.401 75.4516C152.039 78.4284 154.729 81.4916 155.951 85.1204C158.202 91.8123 155.072 98.9677 151.256 105.086C147.441 111.205 142.86 117.229 141.928 124.165C140.855 132.184 144.856 139.968 148.759 147.249C153.718 156.501 158.756 165.872 166.22 173.663C170.018 177.63 174.608 181.478 175.68 186.607C174.871 187.197 173.918 187.609 172.898 187.81C171.878 188.01 170.819 187.994 169.807 187.762C172.82 198.517 175.235 209.393 177.052 220.389C166.238 214.016 155.752 207.235 145.594 200.046C145.171 201.832 144.251 203.494 142.919 204.877C141.586 206.261 139.885 207.323 137.972 207.963C137.664 204.916 138.851 201.915 139.018 198.86C139.185 195.805 137.866 192.239 134.622 191.32C132.723 190.786 130.472 191.241 128.863 190.197C127.685 189.411 127.228 188.076 126.841 186.811L119.509 162.761C115.052 162.57 110.628 163.524 106.76 165.51C112.276 162.76 116.375 158.199 118.19 152.794L102.936 152.582C106.962 149.178 110.863 145.662 114.638 142.033C120.133 136.755 125.382 131.21 129.382 124.95C140.609 107.411 140.767 84.6255 129.778 66.961C127.958 64.0313 125.786 61.1801 122.744 59.2558C111.745 52.4303 93.8184 61.4472 87.7871 70.0792Z" fill="black"/>
<path opacity="0.05" d="M59.4946 324.389L69.0075 335.849C72.8408 340.467 76.7005 345.133 81.5361 348.926C91.6908 356.914 105.274 360.504 116.15 367.777C122.929 372.307 128.466 378.154 132.345 384.876C134.244 388.175 135.378 392.895 132.002 395.087C129.004 397.003 124.88 395.306 121.733 393.602L104.694 384.405C99.7354 381.726 94.6889 378.985 90.8907 375.074C87.919 372.01 85.8353 368.35 83.356 364.949C79.5596 359.742 74.831 355.127 69.3592 351.29C66.0094 348.934 62.3256 346.868 59.5386 344.001C55.0283 339.415 53.1204 333.265 51.7665 327.272C51.3181 325.277 47.9332 312.678 50.5444 312.521C52.0302 312.388 58.167 322.787 59.4946 324.389Z" fill="black"/>
<path opacity="0.1" d="M52.127 245.115C52.127 245.115 90.0467 261.318 132.908 247.078H138.956C138.956 247.078 157.094 255.914 170.827 245.601L171.786 275.762L59.2485 272.621L52.127 245.115Z" fill="black"/>
<path d="M262.897 28.4194C261.745 27.8617 260.461 27.2883 259.178 27.524C256.153 28.0816 255.292 32.6293 252.197 32.5037C250.711 32.4408 249.647 31.2469 248.311 30.65C246.975 30.0531 244.715 30.8149 245.243 32.0559C242.728 34.1766 238.912 28.3251 235.993 29.9745C235.343 30.3437 234.982 31.0192 234.349 31.404C233.277 32.0638 231.817 31.7339 230.621 31.2784C229.426 30.8228 228.151 30.2573 226.885 30.4929C225.619 30.7286 224.784 32.4251 225.839 33.1084L216.027 33.0613C215.776 33.6731 215.67 34.3247 215.715 34.975C215.761 35.6252 215.957 36.26 216.291 36.8393L209.134 37.0828C209.105 38.2331 209.46 39.365 210.154 40.3345C208.195 40.0775 206.199 40.1803 204.286 40.6368C202.374 41.0933 200.586 41.8938 199.032 42.9893L202.065 45.0785C199.001 45.2221 195.991 45.8552 193.176 46.9479L194.741 49.3042C193.009 49.3047 191.336 49.8724 190.04 50.9C188.744 51.9276 187.914 53.3438 187.708 54.8808L190.486 55.8155C188.847 56.2287 187.322 56.944 186.011 57.9153C184.7 58.8865 183.631 60.0923 182.872 61.455L185.009 62.3033C183.424 65.489 180.541 68.0164 176.946 69.3722C178.57 69.7592 180.008 70.6076 181.044 71.7894C182.08 72.9712 182.657 74.4221 182.688 75.9228C180.349 74.6347 177.096 76.4569 176.384 78.8211C175.672 81.1853 176.727 83.683 177.984 85.89C178.856 84.302 179.053 82.4849 178.538 80.7768C179.225 81.1054 179.821 81.5659 180.285 82.125C180.749 82.6842 181.069 83.3283 181.221 84.0109C181.373 84.6935 181.354 85.3978 181.165 86.0731C180.977 86.7484 180.623 87.3779 180.129 87.9165C179.453 88.3955 178.86 88.962 178.371 89.5973C177.492 91.1682 179.013 92.8647 180.402 94.0743C178.195 95.0247 175.795 96.1558 174.942 98.2057C174.3 99.7766 174.678 101.45 175.047 103.06C175.417 104.67 175.742 106.398 175.047 107.898C174.353 109.398 172.058 110.404 170.572 109.469C170.446 110.222 170.599 110.992 171.009 111.66C171.419 112.328 172.062 112.858 172.84 113.169C173.619 113.48 174.49 113.554 175.32 113.381C176.151 113.208 176.895 112.797 177.439 112.21C178.362 111.205 179.83 109.587 180.709 110.639C177.14 113.043 177.263 118.643 180.947 120.913C179.769 120.324 178.309 121.321 177.703 122.382C176.621 124.165 176.516 126.552 177.984 128.1C179.452 129.647 182.644 129.733 183.813 127.99C182.582 130.244 186.16 132.467 188.912 131.98C191.664 131.493 193.906 129.623 196.623 129.003C199.34 128.382 203.12 130.024 202.417 132.451C201.32 131.99 200.109 131.788 198.9 131.862C198.301 131.916 197.746 132.165 197.341 132.563C196.935 132.96 196.708 133.476 196.702 134.014C198.698 135.538 200.94 137.156 203.569 137.116C206.197 137.077 208.729 134.344 207.244 132.404C208.009 131.202 210.242 132.145 210.708 133.464C211.174 134.784 210.813 136.284 211.446 137.548C211.728 138.005 212.128 138.394 212.612 138.684C213.097 138.973 213.652 139.155 214.232 139.214C214.811 139.272 215.398 139.206 215.943 139.02C216.488 138.834 216.975 138.534 217.363 138.145C218.049 138.86 219.333 138.625 220.335 138.326C226.322 136.543 233.127 134.014 234.833 128.587C235.36 126.89 235.352 124.989 236.591 123.591C237.512 122.64 238.741 121.967 240.108 121.667C246.148 120.025 252.654 121.855 258.404 124.18C264.154 126.505 269.834 129.396 276.085 129.993C280.182 130.385 284.49 129.796 288.306 131.179C289.253 131.635 290.288 131.931 291.356 132.05C292.429 132.05 293.625 131.328 293.502 130.377C293.423 129.78 292.886 129.325 292.57 128.807C292.398 128.488 292.301 128.142 292.283 127.788C292.265 127.435 292.326 127.083 292.464 126.751C292.602 126.42 292.813 126.117 293.085 125.86C293.357 125.603 293.684 125.398 294.047 125.256C293.937 126.032 294.055 126.821 294.39 127.544C294.724 128.267 295.263 128.899 295.955 129.38C296.667 129.834 297.54 130.042 298.411 129.965C299.283 129.889 300.093 129.533 300.693 128.964C301.801 127.754 301.274 125.594 299.621 125.099C301.191 124.305 302.348 122.99 302.842 121.439C303.335 119.889 303.126 118.227 302.258 116.813C306.487 114.614 307.472 108.707 304.131 105.51C306.03 104.659 307.553 103.262 308.455 101.544C309.358 99.8259 309.588 97.8867 309.107 96.0379C310.866 95.4253 312.624 94.7419 313.811 93.4303C314.998 92.1186 315.156 89.9822 313.732 88.9061C315.514 84.7293 316.515 80.3191 316.695 75.8521C316.748 74.564 316.229 72.8282 314.796 72.8989C316.009 71.0688 317.214 68.7125 315.886 66.9452C315.367 66.2619 314.532 65.7906 314.128 65.0601C313.09 63.3165 314.831 61.1329 314.207 59.2479C313.644 57.5278 311.455 56.7816 309.74 55.8469C307.2 54.4724 305.344 52.3124 302.953 50.7259C300.562 49.1393 297.221 48.1653 294.689 49.5399C294.373 47.3378 293.512 45.2264 292.167 43.3595C290.823 41.4925 289.029 39.917 286.916 38.7479C282.52 36.3916 280.991 32.9121 275.039 32.2523C273.113 32.0402 270.757 32.6843 268.937 32.1345C266.783 31.4119 264.919 29.3933 262.897 28.4194Z" fill="#8C5B79"/>
<path opacity="0.05" d="M253.947 80.1249C252.056 81.8058 253.604 85.081 251.801 86.8326C250.922 87.6887 249.419 87.9557 248.724 88.9454C247.845 90.2257 248.724 91.9772 248.161 93.3989C247.432 95.1268 244.794 95.6374 243.871 97.3261C242.728 99.3839 244.513 102.612 242.297 103.782C241.471 104.222 240.275 104.167 239.756 104.89C239.238 105.612 239.756 106.555 239.756 107.411C239.756 108.982 237.901 109.956 236.688 111.111C235.475 112.265 235.325 114.755 237.092 114.873C236.176 116.201 234.808 117.233 233.189 117.818C234.842 118.69 234.455 120.96 233.268 122.342C232.081 123.725 230.287 124.565 229.487 126.136C229.065 126.921 228.916 127.801 228.511 128.594C227.122 131.328 222.867 132.168 219.825 130.896C216.783 129.623 214.884 126.796 213.952 123.913C211.895 117.559 213.706 110.639 211.965 104.214C210.963 100.491 208.782 96.9412 208.949 93.1161C209.09 90.0686 210.708 87.2567 212.378 84.5941C216.517 77.966 221.085 71.559 226.058 65.4057C230.824 59.5071 236.609 53.4749 244.565 51.9669C249.269 51.0793 254.158 51.904 258.808 52.9958C272.427 56.2004 285.598 61.8948 295.392 70.9353C298.421 73.5719 300.814 76.7339 302.425 80.227C303.911 83.7536 304.122 87.8301 302.311 91.2232C301.274 93.1711 299.55 95.1504 300.236 97.2554C300.546 97.8918 300.819 98.5419 301.054 99.2033C301.696 102.345 295.779 103.916 295.779 107.058C295.779 107.922 296.253 108.754 296.13 109.61C295.875 111.354 293.493 112.077 292.376 113.538C290.802 115.666 292.183 119.091 289.95 120.677C288.877 121.463 287.11 121.612 286.705 122.79C286.442 123.575 286.943 124.361 286.899 125.146C286.82 126.56 285.14 127.416 284.261 128.555C283.382 129.694 284.05 132.027 285.51 131.477L281.457 134.03L282.529 136.009C281.65 137.666 278.81 137.816 277.36 136.543C275.909 135.271 275.742 133.166 276.401 131.446C277.187 129.767 278.281 128.217 279.637 126.859C282.172 123.96 284.5 120.923 286.609 117.763C288.367 115.148 290.002 112.21 289.545 109.194C289.176 106.751 287.461 104.316 288.367 101.984L291.295 101.041L286.345 95.8416L288.815 95.3153C288 94.6879 287.392 93.8731 287.057 92.959C286.915 92.5029 286.977 92.0151 287.232 91.5998C287.487 91.1845 287.913 90.8746 288.42 90.7362C289.888 86.864 281.386 83.6672 283.646 80.0542H281.413C281.38 78.0864 280.49 76.2074 278.933 74.8153C277.19 73.3452 274.911 72.4862 272.515 72.3962C269.64 72.2469 261.965 72.6475 259.565 74.3362C258.14 75.3337 258.817 76.5433 257.868 77.6272C256.848 78.9625 255.142 79.0567 253.947 80.1249Z" fill="black"/>
<path d="M299.392 185.641C298.913 188.444 297.839 191.139 296.227 193.582C294.336 195.954 291.829 197.882 288.921 199.198C286.978 200.164 284.912 200.988 282.89 201.774L268.444 207.382C263.977 209.596 258.752 210.259 253.771 209.243L227.026 205.905C223.825 205.505 220.59 205.12 217.354 204.562C215.315 204.232 213.284 203.847 211.297 203.392C207.081 202.474 203.022 201.058 199.225 199.182C190.847 194.909 187.55 186.466 188.411 177.873C189.229 169.697 192.921 163.672 199.603 158.033L201.45 156.462L201.617 156.328L206.101 152.535L212.651 147.037C215.608 144.684 218.319 142.094 220.748 139.3C226.12 132.718 228.028 122.46 235.22 117.19C241.321 112.721 255.177 119.161 260.769 122.523C261.691 122.994 262.46 123.671 263.002 124.487C263.413 125.425 263.532 126.446 263.345 127.44C262.707 133.625 260.737 139.642 257.542 145.159C256.918 146.235 256.232 147.406 256.461 148.6C256.539 148.995 256.706 149.372 256.953 149.707C257.72 150.598 258.719 151.307 259.864 151.773C261.434 152.497 263.045 153.15 264.69 153.729C270.634 155.834 276.946 157.184 282.863 159.415C290.407 162.266 297.757 167.16 299.726 174.26C300.799 177.975 300.245 181.902 299.392 185.641Z" fill="#C6866B"/>
<path d="M264.725 153.721C265.868 157.349 271.522 174.77 274.959 175.642C276.252 175.972 281.914 186.002 288.886 199.206C302.716 225.384 321.662 264.02 321.662 264.02L241.225 262.308L206.259 261.522L211.305 203.361L212.308 191.815L221.39 188.995L224.951 187.887L224.397 169.72C224.397 169.72 216.581 151.985 201.599 156.281L206.083 152.488C213.459 152.417 221.583 156.69 229.338 169.72C229.338 169.72 274.397 223.719 270.001 173.647C270.001 173.647 262.308 152.048 254.615 148.607L256.971 149.66L264.725 153.721Z" fill="#F4BC33"/>
<path opacity="0.05" d="M259.556 139.119C260.643 135.94 261.359 132.668 261.692 129.356C261.879 128.362 261.76 127.342 261.349 126.403C260.807 125.587 260.038 124.911 259.116 124.439C253.525 121.078 239.677 114.637 233.567 119.106C232.92 119.592 232.312 120.116 231.747 120.677C238.082 129.737 248.015 136.324 259.556 139.119Z" fill="black"/>
<path d="M228.336 107.607C232.116 122.814 247.229 134.886 264.383 137.808C268.172 138.46 272.779 138.436 275.082 135.663C276.568 133.873 276.621 131.438 277.72 129.38C278.661 127.605 280.358 126.238 281.808 124.801C283.789 122.785 285.527 120.59 286.996 118.25C292.007 110.514 295.207 101.599 294.346 92.692C293.828 88.7258 292.913 84.809 291.611 80.9889C290.213 76.3941 288.543 71.4458 284.226 68.6575C274.757 62.5389 259.125 64.5653 249.278 68.5946C239 72.8046 231.694 81.4837 228.881 91.1368C227.235 96.5101 227.048 102.157 228.336 107.607Z" fill="#C6866B"/>
<path d="M253.947 79.1431C252.056 80.8239 253.604 84.0992 251.801 85.8507C250.922 86.7069 249.419 86.9739 248.724 87.9636C247.845 89.2438 248.724 90.9954 248.161 92.417C247.432 94.145 244.794 94.6555 243.871 96.3442C242.728 98.4021 244.513 101.63 242.297 102.801C241.471 103.24 240.275 103.185 239.756 103.908C239.238 104.631 239.756 105.573 239.756 106.429C239.756 108 237.901 108.974 236.688 110.129C235.475 111.283 235.325 113.773 237.092 113.891C236.176 115.219 234.808 116.251 233.189 116.836C234.842 117.708 234.455 119.978 233.268 121.361C232.081 122.743 230.331 123.662 229.496 125.201C229.074 125.987 228.925 126.866 228.52 127.66C227.131 130.393 222.876 131.233 219.834 129.961C216.792 128.689 214.893 125.861 213.961 122.979C211.903 116.624 213.715 109.705 211.974 103.28C210.971 99.5567 208.791 96.0065 208.958 92.1814C209.099 89.1339 210.716 86.322 212.387 83.6594C216.526 77.0313 221.094 70.6243 226.067 64.4711C230.833 58.5724 236.618 52.5402 244.574 51.0322C249.278 50.1446 254.166 50.9693 258.817 52.0611C272.436 55.2657 285.606 60.9601 295.401 70.0006C298.43 72.6372 300.823 75.7992 302.434 79.2923C303.92 82.8189 304.131 86.8954 302.32 90.2885C301.283 92.2364 299.559 94.2157 300.245 96.3207C300.555 96.9571 300.828 97.6072 301.063 98.2686C301.705 101.41 295.788 102.981 295.788 106.123C295.788 106.987 296.262 107.82 296.139 108.676C295.884 110.419 293.502 111.142 292.385 112.603C290.811 114.731 292.192 118.156 289.959 119.742C288.886 120.528 287.119 120.677 286.714 121.855C286.451 122.641 286.952 123.426 286.908 124.212C286.829 125.625 285.149 126.482 284.27 127.62C283.391 128.759 284.059 131.092 285.519 130.542L281.465 133.095L282.538 135.074C281.659 136.732 278.819 136.881 277.368 135.608C275.918 134.336 275.751 132.231 276.41 130.511C277.196 128.832 278.289 127.282 279.646 125.924C282.181 123.026 284.509 119.988 286.618 116.829C288.376 114.213 290.011 111.275 289.554 108.259C289.185 105.817 287.47 103.382 288.376 101.049L291.304 100.106L286.354 94.9069L288.824 94.3806C288.009 93.7532 287.4 92.9384 287.066 92.0243C286.924 91.5682 286.986 91.0804 287.241 90.6651C287.496 90.2498 287.922 89.9399 288.429 89.8015C289.897 85.9293 281.395 82.7326 283.655 79.1195H281.421C281.389 77.1517 280.499 75.2727 278.942 73.8806C277.198 72.4105 274.92 71.5515 272.524 71.4615C269.649 71.3123 261.974 71.7128 259.573 73.4015C258.149 74.399 258.826 75.6086 257.877 76.6925C256.848 77.9806 255.142 78.0749 253.947 79.1431Z" fill="#8C5B79"/>
<path d="M477.825 370.793C476.779 375.506 473.517 380.367 470.66 384.389C470.238 384.978 469.833 385.567 469.42 386.156L468.778 387.099C464.109 393.976 460.136 401.213 456.909 408.722C456.153 410.473 455.441 412.233 454.79 414H419.315C416.923 410.74 415.798 407.025 414.919 403.397C413.505 397.362 412.743 391.221 412.641 385.057C412.568 381.061 412.777 377.066 413.266 373.094C413.266 372.733 413.362 372.372 413.415 372.003C414.101 367.423 415.701 362.577 420.88 359.773C421.292 359.546 421.717 359.339 422.154 359.153C422.27 359.093 422.391 359.04 422.515 358.996C424.875 358.081 427.34 357.399 429.865 356.961C433.505 356.239 437.192 355.647 440.925 355.186L442.103 355.053C444.172 354.812 446.253 354.615 448.346 354.464C449.533 354.369 450.72 354.291 451.915 354.228C458.245 353.906 465.103 354.071 470.167 356.726C474.238 358.878 476.498 361.391 477.509 364.085C477.561 364.219 477.614 364.36 477.658 364.502C478.277 366.556 478.334 368.714 477.825 370.793Z" fill="#0E0D15"/>
<path d="M531.14 370.596C527.712 373.144 525.098 376.455 523.561 380.195C523.385 380.579 523.227 380.98 523.078 381.357C521.082 386.525 520.51 392.267 520.159 397.663C519.807 403.059 519.447 408.557 519.095 414H457.252C457.103 412.241 456.98 410.481 456.909 408.722C456.698 404.213 456.719 399.702 456.971 395.189C457.046 392.171 457.515 389.171 458.369 386.25C458.474 385.936 458.58 385.622 458.703 385.308C458.826 384.994 459.046 384.467 459.239 384.051C462.017 378.184 468.119 373.966 474.783 371.696C475.786 371.358 476.797 371.06 477.825 370.793C483.619 369.285 489.756 368.884 495.814 368.711C505.617 368.429 522.471 366.646 531.14 370.596Z" fill="#0E0D15"/>
<path d="M458.931 152.59C459.047 154.848 458.735 157.108 458.008 159.274C456.549 162.91 452.891 165.557 448.856 166.955C444.82 168.353 440.407 168.526 436.09 168.526C430.507 168.456 424.168 168.196 420.264 171.739C417.732 174.009 416.871 177.315 416.114 180.449C413.38 191.744 410.716 203.903 415.754 214.545C418.945 221.3 425.047 226.751 432.116 230.474C439.185 234.197 447.203 236.278 455.291 237.543C458.506 238.06 461.766 238.321 465.033 238.321C476.181 238.226 486.591 233.608 496.543 229.154C498.754 228.301 500.775 227.101 502.513 225.612C504.071 223.917 505.263 221.978 506.03 219.894C511.381 207.736 516.211 195.409 520.519 182.916C521.662 179.601 522.779 176.208 522.708 172.705C522.638 169.202 521.205 165.636 518.11 163.531C513.389 160.389 506.795 161.614 500.922 162.219C500.508 162.337 500.068 162.365 499.639 162.302C499.21 162.239 498.804 162.087 498.454 161.857C498.103 161.628 497.818 161.327 497.622 160.981C497.426 160.634 497.325 160.251 497.326 159.863C495.656 154.171 495.449 148.215 496.719 142.442C497.519 138.845 498.838 134.933 496.957 131.673C494.372 127.196 487.549 126.709 481.905 126.819L472.234 127.008C470.807 126.925 469.382 127.179 468.101 127.746C465.939 128.94 464.462 130.888 462.202 132.09C460.312 133.103 459.125 132.977 458.342 134.949C457.56 136.92 458.659 140.894 458.747 143.039C458.887 146.243 458.949 149.427 458.931 152.59Z" fill="#B17860"/>
<path opacity="0.05" d="M431.931 208.01C433.254 209.732 434.861 211.265 436.697 212.558C440.512 214.977 445.691 215.103 450.175 213.893C454.659 212.684 458.606 210.304 462.483 207.955L494.205 188.728C498.601 186.073 502.997 183.395 508.017 181.855C509.292 181.355 510.715 181.24 512.07 181.525C513.355 182.043 514.44 182.887 515.191 183.952C519.385 188.799 523.658 193.77 525.742 199.598C527.711 205.01 527.693 210.814 527.623 216.501C527.529 224.272 527.38 232.042 527.175 239.813C527.06 244.203 526.911 248.649 525.487 252.851C523.482 258.781 519.016 263.973 517.838 270.076C516.616 276.399 519.086 282.769 521.354 288.871C530.54 313.884 536.4 339.774 538.815 366.01C539.035 368.444 539.193 371.052 537.831 373.165C536.749 374.854 534.85 375.993 532.969 376.982C508.879 389.683 478.933 388.701 451.203 385.473C445.533 384.813 439.554 383.957 435.176 380.674C432.072 378.317 430.12 375.042 428.344 371.79C419.86 356.239 413.503 339.265 414.277 321.986C414.679 316.324 415.434 310.686 416.537 305.099C418.295 295.029 419.831 284.936 421.144 274.82C422.12 267.445 422.955 259.779 420.264 252.741C417.556 245.444 411.261 239.499 408.764 232.116C405.098 221.237 410.215 209.448 415.156 199.575C416.739 196.433 424.827 169.728 426.357 169.508C430.841 168.785 428.344 203.8 431.931 208.01Z" fill="black"/>
<path d="M431.931 207.036C433.254 208.758 434.861 210.291 436.696 211.584C440.512 214.003 445.691 214.129 450.174 212.919C454.658 211.71 458.606 209.33 462.483 206.981L494.205 187.754C498.601 185.099 502.997 182.421 508.017 180.881C509.292 180.381 510.715 180.266 512.07 180.551C513.355 181.069 514.44 181.913 515.191 182.978C519.385 187.825 523.658 192.796 525.741 198.624C527.711 204.036 527.693 209.84 527.623 215.527C527.529 223.298 527.38 231.068 527.175 238.839C527.06 243.23 526.911 247.675 525.486 251.877C523.482 257.807 519.016 262.999 517.837 269.102C516.615 275.425 519.086 281.795 521.354 287.898C530.539 312.91 536.4 338.8 538.815 365.036C539.035 367.471 539.193 370.078 537.83 372.191C536.749 373.88 534.85 375.019 532.968 376.008C508.878 388.709 478.933 387.727 451.203 384.499C445.541 383.839 439.536 382.975 435.14 379.692C432.037 377.336 430.085 374.06 428.309 370.809C419.825 355.257 413.468 338.284 414.242 321.004C414.644 315.342 415.398 309.704 416.501 304.117C418.26 294.048 419.795 283.955 421.108 273.838C422.084 266.463 422.919 258.797 420.229 251.759C417.46 244.463 411.156 238.517 408.668 231.142C405.001 220.263 410.118 208.474 415.059 198.601C416.642 195.459 424.731 168.754 426.26 168.534C430.841 167.804 428.344 202.819 431.931 207.036Z" fill="#480082"/>
<path d="M327.14 57.8027C315.807 64.5732 312.624 77.8235 307.912 89.2203C306.092 93.6187 303.92 97.9387 302.883 102.573C301.573 108.338 302.109 114.292 302.004 120.174C301.593 132.545 298.177 144.688 291.994 155.762C285.811 166.837 277.008 176.579 266.194 184.314L331.079 201.593C335.193 202.762 339.379 203.719 343.616 204.46C349.77 205.426 356.03 205.481 362.272 205.528L401.995 205.842C404.993 205.842 408.501 205.67 410.189 203.486C410.945 202.361 411.295 201.056 411.191 199.747C411.05 192.561 404.931 186.717 401.924 180.056C397.089 169.343 408.14 159.501 407.727 147.956C407.533 142.591 407.331 134.658 407.727 129.301C408.606 116.899 408.747 105.573 407.164 93.2182C405.406 79.3473 391.699 69.5136 379.083 61.2665C365.367 52.3046 342.139 48.8722 327.14 57.8027Z" fill="#BF9B5C"/>
<path d="M341.734 115.014L341.462 155.519C334.077 155.865 326.747 156.857 319.579 158.48C313.585 159.816 308.363 163.096 304.929 167.683C301.495 172.27 300.095 177.834 301.001 183.293L309.591 235.54L402.461 240.449V189.882C401.128 184.192 397.395 179.179 392.035 175.883C386.675 172.587 380.101 171.26 373.676 172.179L370.036 172.697L378.283 130.479L341.734 115.014Z" fill="#FFC095"/>
<path d="M321.126 154.538C321.126 154.538 339.809 188.414 341.462 195.286C343.115 202.159 307.393 226.217 302.443 223.758C297.493 221.3 298.047 281.685 298.047 281.685L393.669 273.335L395.867 261.059C395.867 261.059 420.598 251.728 398.065 214.42L391.471 211.961C391.471 211.961 385.976 231.597 344.759 194.289L324.977 153.053L321.126 154.538Z" fill="#0FA36B"/>
<path opacity="0.05" d="M395.04 260.329C395.04 260.329 376.357 261.805 374.704 258.365L371.407 257.87C371.407 257.87 365.912 268.67 314.259 257.375L297.986 256.88L294.469 264.264L395.189 267.209L395.04 260.329Z" fill="black"/>
<path opacity="0.05" d="M342.667 142.269C343.784 142.966 344.988 143.546 346.254 143.997C349.384 145.081 352.821 145.175 356.171 145.254C362.211 145.395 368.761 145.411 373.623 142.206C375.825 140.703 377.567 138.729 378.687 136.465L379.373 132.938L342.825 117.496L342.667 142.269Z" fill="black"/>
<path d="M319.965 93.1476C318.857 101.244 319.912 109.461 323.045 117.123C326.178 124.785 331.299 131.674 337.989 137.226C340.053 139.035 342.473 140.486 345.128 141.507C348.258 142.591 351.696 142.685 355.045 142.764C361.085 142.905 367.635 142.921 372.497 139.716C378.265 135.923 379.777 128.932 380.859 122.609L384.235 102.887C385.219 97.1455 386.134 90.964 383.197 85.7801C378.186 76.9047 358.826 68.7125 347.924 69.7336C333.637 71.0924 321.847 80.5805 319.965 93.1476Z" fill="#FFC095"/>
<path opacity="0.05" d="M334.094 87.029C330.99 92.8962 328.819 99.4389 329.979 105.88C330.973 111.378 334.305 116.216 337.655 120.881C345.233 131.422 353.542 142.245 355.072 154.703C355.617 159.156 355.23 163.806 353.058 167.835C350.887 171.864 346.719 175.195 341.769 175.917C340.409 176.183 338.988 176.042 337.725 175.517C336.169 174.731 335.325 173.247 334.534 171.841C330.727 165.07 312.677 163.13 304.36 164.638C303.199 164.85 313.195 159.926 312.026 159.776C308.615 159.329 307.991 155.205 308.237 152.134L313.028 92.8648C313.301 89.511 313.582 86.11 314.787 82.9211C319.183 71.438 334.367 66.1991 347.95 65.8535C352.165 65.6955 356.386 66.0282 360.505 66.8432C369.983 68.846 378.256 74.2184 384.665 80.769C389.061 85.2853 392.789 90.532 394.249 96.3836C395.919 103.083 394.556 110.058 393.308 116.805C387.435 148.655 384.226 181.942 395.163 212.699C384.762 214.585 373.368 207.987 371.029 198.75C370.097 195.058 370.466 191.218 370.836 187.455C372.251 173.05 373.667 158.638 376.111 144.35C378.001 133.464 380.507 122.602 380.683 111.582C380.823 102.596 379.091 92.9905 372.286 86.3692C361.217 75.5301 341.998 72.1056 334.094 87.029Z" fill="black"/>
<path d="M334.094 86.0785C330.99 91.9458 328.819 98.4885 329.979 104.929C330.973 110.427 334.305 115.266 337.655 119.931C345.233 130.472 353.542 141.295 355.072 153.752C355.617 158.206 355.23 162.855 353.058 166.885C350.887 170.914 346.719 174.244 341.769 174.967C340.409 175.232 338.988 175.091 337.725 174.566C336.169 173.781 335.325 172.296 334.534 170.89C330.727 164.12 312.677 162.18 304.36 163.688C303.199 163.9 313.195 158.975 312.026 158.826C308.615 158.378 307.991 154.255 308.237 151.184L313.028 91.9143C313.301 88.5605 313.582 85.1596 314.787 81.9707C319.183 70.4875 334.367 65.2486 347.95 64.9031C352.165 64.7451 356.386 65.0777 360.505 65.8927C369.983 67.8956 378.256 73.268 384.665 79.8186C389.061 84.3348 392.789 89.5816 394.249 95.4331C395.919 102.133 394.556 109.108 393.308 115.855C387.435 147.704 384.226 180.991 395.163 211.749C384.762 213.634 373.368 207.036 371.029 197.8C370.097 194.108 370.466 190.267 370.836 186.505C372.251 172.1 373.667 157.687 376.111 143.4C378.001 132.514 380.507 121.651 380.683 110.631C380.823 101.646 379.091 92.04 372.286 85.4188C361.217 74.5483 341.998 71.1552 334.094 86.0785Z" fill="#BF9B5C"/>
<path d="M448.346 267.013H110.928V414H448.346V267.013Z" fill="#F3F0DD"/>
<path d="M33.4089 166.28C30.5515 167.592 27.6326 168.919 25.4082 170.993C23.1838 173.066 21.698 175.964 20.5287 178.768C17.6713 185.633 15.8953 192.812 14.1281 199.975C7.82426 225.486 1.50284 251.147 0.131294 277.239C-0.211593 283.68 -0.229181 290.215 1.55559 296.459C3.50741 303.276 7.55171 309.458 11.8158 315.38C25.6097 334.514 42.2299 351.898 61.2267 367.062C62.3979 367.9 63.418 368.893 64.2511 370.007C64.8612 371.077 65.353 372.198 65.7194 373.353C69.2362 382.315 79.048 387.868 88.1828 392.73C91.8491 394.678 95.6209 396.658 99.8322 397.294C102.004 397.616 104.228 397.576 106.312 398.315C109.495 399.454 111.587 402.242 114.647 403.648C117.706 405.054 122.806 403.397 121.979 400.42C124.845 402.391 129.444 398.213 127.184 395.707C129.444 397.003 132.574 394.859 132.864 392.471C133.154 390.083 131.642 387.845 130.226 385.826C125.267 378.907 120.142 371.83 112.704 366.976C104.747 361.815 94.7856 359.671 86.5915 354.817C78.626 350.104 72.7529 343.106 67.1437 336.194C55.6672 322.056 44.5805 307.678 33.8836 293.058C32.4769 291.134 31.0438 289.131 30.5603 286.892C30.0767 284.654 30.5603 282.18 31.1406 279.902C36.368 258.116 43.7772 236.795 53.2788 216.195C55.7149 210.615 58.6553 205.223 62.0707 200.07C66.8008 193.228 72.9376 187.212 77.4918 180.276C82.0461 173.341 84.9914 164.976 82.4857 157.247C80.0503 149.723 69.2977 141.735 61.4816 147.469C57.0857 150.665 54.0436 155.032 49.2432 158.08C44.1936 161.151 38.9017 163.892 33.4089 166.28Z" fill="#FFC095"/>
<path d="M310.549 311.5C308.54 307.242 305.623 303.374 301.959 300.111C300.253 298.586 298.396 297.2 296.412 295.972L296.245 295.862C290.935 292.628 284.836 290.578 278.457 289.882C272.079 289.187 265.606 289.866 259.582 291.864C259.313 291.948 259.04 292.042 258.765 292.147C258.501 292.233 258.237 292.335 257.982 292.429C249.584 295.596 242.643 301.223 238.303 308.385C233.962 315.546 232.482 323.814 234.104 331.828C235.726 339.841 240.355 347.122 247.229 352.472C254.102 357.821 262.809 360.92 271.917 361.258V379.111H250.289V382.111H271.917V401.433H275.285V382.111H296.904V379.111H275.276V361.242C281.745 360.995 288.052 359.353 293.658 356.456C299.263 353.56 304.001 349.494 307.466 344.608C310.931 339.721 313.022 334.157 313.559 328.392C314.096 322.627 313.063 316.831 310.549 311.5ZM273.623 358.289C264.896 358.282 256.456 355.502 249.813 350.446C243.17 345.389 238.758 338.386 237.365 330.689C235.973 322.993 237.691 315.105 242.212 308.436C246.734 301.767 253.763 296.753 262.044 294.291L262.721 294.087C266.252 293.113 269.927 292.617 273.623 292.618C279.623 292.61 285.533 293.924 290.829 296.443L291.005 296.529C298.219 299.989 303.933 305.501 307.241 312.192C310.55 318.883 311.262 326.369 309.265 333.463C307.269 340.557 302.678 346.852 296.221 351.349C289.764 355.847 281.811 358.289 273.623 358.289Z" fill="#7D49AA"/>
<path d="M77.7204 73.755C74.5202 81.1774 76.2697 89.4638 78.0633 97.3182C79.092 101.787 80.147 106.327 82.5824 110.341C84.5506 113.468 87.1535 116.241 90.2578 118.517C97.9294 124.227 107.532 127.459 117.513 127.691C119.506 127.833 121.509 127.564 123.368 126.906C125.707 125.948 127.325 124.015 128.837 122.193C132.661 117.48 136.521 112.768 139.15 107.49C143.871 97.978 144.337 87.2803 144.724 76.8575C144.9 75.3227 144.72 73.7721 144.196 72.3019C143.762 71.427 143.194 70.6101 142.508 69.8749C135.475 61.6671 122.014 48.4952 109.266 52.336C97.3969 55.8548 82.4681 62.7353 77.7204 73.755Z" fill="#FFC095"/>
<path opacity="0.05" d="M111.816 398.794C109.776 398.063 107.508 398.103 105.336 397.773C101.125 397.144 97.3529 395.157 93.6866 393.209C84.543 388.348 74.7487 382.794 71.2231 373.833C70.8568 372.677 70.365 371.557 69.7549 370.487C68.9217 369.372 67.9017 368.379 66.7304 367.541C47.7336 352.377 31.1135 334.993 17.3196 315.859C13.0555 309.937 9.01118 303.756 7.05937 296.938C5.30097 290.694 5.30096 284.159 5.63506 277.718C7.00661 251.626 13.328 225.965 19.6319 200.454C21.3903 193.299 23.1487 186.12 26.0324 179.247C27.2018 176.443 28.5909 173.632 30.912 171.472C33.2331 169.312 36.0553 168.071 38.9127 166.759C44.4027 164.368 49.6917 161.625 54.7382 158.551C59.5386 155.504 62.607 151.137 66.9766 147.94C67.9419 147.231 69.0529 146.697 70.2472 146.369C68.7519 145.951 67.1628 145.875 65.6264 146.15C64.0899 146.424 62.6555 147.04 61.4553 147.94C57.0593 151.137 54.0173 155.504 49.2168 158.551C44.1703 161.625 38.8813 164.368 33.3913 166.759C30.5339 168.071 27.615 169.398 25.3906 171.472C23.1663 173.545 21.6804 176.443 20.5111 179.247C17.6537 186.112 15.8777 193.291 14.1105 200.454C7.85064 225.965 1.49405 251.618 0.122505 277.726C-0.220382 284.167 -0.23797 290.701 1.5468 296.946C3.49862 303.763 7.54292 309.945 11.807 315.867C25.6009 335.001 42.2211 352.385 61.2179 367.549C62.3891 368.386 63.4092 369.38 64.2423 370.494C64.8525 371.564 65.3442 372.685 65.7106 373.84C69.2274 382.802 79.0392 388.355 88.174 393.217C91.8403 395.165 95.6121 397.144 99.8234 397.781C101.995 398.103 104.219 398.063 106.303 398.802C109.486 399.941 111.578 402.729 114.638 404.135C115.481 404.473 116.396 404.641 117.319 404.629C118.243 404.617 119.152 404.424 119.983 404.064C117.012 402.611 114.946 399.917 111.816 398.794Z" fill="black"/>
<path d="M87.7871 69.0974C82.4416 76.7554 81.4481 86.4792 83.9977 95.2133C85.9056 101.764 89.7037 108.566 87.1365 114.959C85.2023 119.758 79.8128 124.542 82.4855 129.05C83.0834 130.055 84.0505 130.888 84.4022 131.98C85 133.841 83.6549 135.687 82.7229 137.431C77.8522 146.51 83.6725 156.949 86.5211 166.688C88.6311 173.899 89.0619 181.4 89.484 188.846L84.2088 176.805C82.0352 186.906 77.328 196.437 70.4405 204.68C74.3143 204.719 78.1625 205.248 81.8701 206.251C79.1265 205.956 76.359 206.594 74.1174 208.037C71.8757 209.481 70.324 211.625 69.7703 214.044C69.2166 216.463 69.7016 218.979 71.1288 221.093C72.556 223.207 74.8211 224.764 77.4741 225.455C72.0759 226.523 66.5017 223.24 63.9169 218.873C61.3321 214.506 61.1299 209.346 61.4376 204.413L57.0416 204.735C61.4366 195.301 63.3061 185.081 62.5014 174.888C62.1409 170.38 60.4792 165.055 55.6436 163.727L54.193 175.69L48.2936 165.07C47.9131 164.137 47.1914 163.346 46.2451 162.824C45.525 162.623 44.7907 162.466 44.0471 162.353C41.7348 161.717 40.838 159.022 41.5589 156.965C42.2799 154.907 44.135 153.344 45.9022 151.867C51.8807 146.872 57.8417 141.546 61.0771 134.831C64.084 128.595 64.5148 121.643 64.8313 114.857C65.2064 106.903 65.4995 98.9441 65.7105 90.9797C65.8599 84.6962 65.9566 78.3656 67.4689 72.2391C70.1064 61.8635 77.14 52.2261 87.4882 46.9244C97.8363 41.6227 111.341 41.1435 121.522 46.6495C127.676 49.964 132.222 55.0851 136.662 60.0962L149.401 74.4698C152.039 77.4466 154.729 80.5098 155.951 84.1386C158.202 90.8305 155.072 97.9859 151.256 104.104C147.441 110.223 142.86 116.247 141.928 123.183C140.855 131.202 144.856 138.986 148.759 146.267C153.718 155.519 158.756 164.89 166.22 172.681C170.018 176.648 174.608 180.496 175.68 185.625C174.871 186.216 173.918 186.628 172.898 186.828C171.878 187.029 170.819 187.012 169.807 186.78C172.838 197.535 175.261 208.408 177.078 219.399C166.264 213.032 155.775 206.251 145.612 199.056C145.189 200.845 144.266 202.51 142.931 203.895C141.595 205.281 139.889 206.342 137.972 206.981C137.664 203.934 138.851 200.934 139.018 197.878C139.185 194.823 137.866 191.257 134.622 190.338C132.723 189.804 130.472 190.259 128.863 189.215C127.685 188.429 127.228 187.094 126.841 185.83L119.509 161.779C115.052 161.589 110.628 162.543 106.76 164.528C112.276 161.778 116.375 157.217 118.19 151.812L102.936 151.6C106.962 148.196 110.863 144.68 114.638 141.052C120.133 135.773 125.382 130.228 129.382 123.968C140.609 106.429 140.767 83.6437 129.778 65.9792C127.958 63.0495 125.786 60.1983 122.744 58.274C111.745 51.4485 93.8184 60.4654 87.7871 69.0974Z" fill="#D67820"/>
<path opacity="0.05" d="M152.918 263.125C152.918 261.028 154.043 259.072 155.204 257.25C156.804 254.752 158.521 252.317 160.356 249.945C161.673 248.019 163.414 246.352 165.473 245.044C167.609 243.85 170.467 243.473 172.647 244.573C173.124 244.912 173.696 245.129 174.3 245.201C175.179 245.201 175.759 244.416 176.542 244.117C177.949 243.536 179.566 244.463 180.551 245.539C181.536 246.615 182.31 247.895 183.725 248.516C184.235 248.735 184.806 248.838 185.325 249.042C187.128 249.749 188.086 251.485 188.895 253.095C189.536 254.159 189.911 255.336 189.994 256.543C189.994 258.648 188.235 260.368 186.574 261.876L182.318 265.803C181.239 266.901 179.979 267.847 178.582 268.607C177.879 268.982 177.09 269.212 176.274 269.278C175.459 269.345 174.637 269.247 173.869 268.992C173.496 268.777 173.055 268.676 172.612 268.701C172.281 268.806 171.997 269.005 171.803 269.267C170.862 270.298 169.981 271.373 169.166 272.487C168.476 273.664 167.477 274.675 166.255 275.433C164.954 276.077 162.994 275.865 162.405 274.647C162.334 274.407 162.198 274.186 162.009 274.003C161.473 273.626 160.787 274.239 160.163 274.474C159.116 274.875 157.885 274.089 157.525 273.123C157.276 272.127 157.343 271.088 157.718 270.123C156.936 269.557 155.793 269.895 154.782 269.942C152.698 270.044 153.12 268.851 153.173 267.767C153.34 266.18 152.962 264.696 152.918 263.125Z" fill="black"/>
<path d="M152.399 264.107C152.399 262.009 153.525 260.054 154.685 258.231C156.285 255.734 158.003 253.299 159.837 250.927C161.155 249.001 162.895 247.334 164.954 246.026C167.091 244.832 169.948 244.455 172.129 245.554C172.606 245.893 173.177 246.111 173.781 246.183C174.661 246.183 175.241 245.397 176.023 245.099C177.43 244.518 179.048 245.445 180.033 246.521C181.017 247.597 181.791 248.877 183.206 249.497C183.716 249.717 184.288 249.819 184.807 250.024C186.609 250.731 187.567 252.466 188.376 254.077C189.018 255.141 189.393 256.318 189.475 257.525C189.475 259.63 187.717 261.35 186.055 262.858L181.8 266.785C180.72 267.883 179.46 268.828 178.063 269.589C177.36 269.964 176.572 270.194 175.756 270.26C174.94 270.327 174.118 270.229 173.351 269.974C172.977 269.759 172.537 269.657 172.093 269.683C171.762 269.788 171.478 269.987 171.285 270.249C170.343 271.28 169.463 272.355 168.647 273.469C167.957 274.646 166.959 275.657 165.737 276.414C164.436 277.058 162.475 276.846 161.886 275.629C161.815 275.389 161.679 275.167 161.49 274.985C160.954 274.608 160.268 275.221 159.644 275.456C158.598 275.857 157.367 275.071 157.006 274.105C156.758 273.108 156.825 272.07 157.2 271.105C156.417 270.539 155.274 270.877 154.263 270.924C152.18 271.026 152.602 269.832 152.654 268.749C152.786 267.162 152.417 265.677 152.399 264.107Z" fill="#FFC095"/>
<path opacity="0.05" d="M299.973 224.497L246.737 261.326L209.811 286.845C187.277 305.499 180.138 278.991 180.138 278.991L185.633 201.915C185.431 182.169 189.062 170.655 193.801 164.002C197.713 158.504 202.382 156.336 206.268 155.582L206.918 155.472C209.344 155.071 211.841 155.174 214.216 155.771C230.041 161.308 229.496 177.064 226.867 188.052C225.947 191.948 224.656 195.766 223.008 199.465C223.056 200.844 223.001 202.224 222.841 203.596C221.759 216.116 216.414 249.544 216.414 249.544L280.155 210.759L299.973 224.497Z" fill="black"/>
<path d="M298.32 224.497L245.084 261.326L208.158 286.845C185.624 305.499 178.485 278.991 178.485 278.991L183.98 201.915C183.778 182.169 187.409 170.655 192.148 164.002C196.06 158.504 200.729 156.336 204.615 155.582L205.265 155.472C207.691 155.071 210.188 155.174 212.563 155.771C228.388 161.308 227.843 177.064 225.214 188.052C224.294 191.948 223.003 195.766 221.355 199.465C221.404 200.844 221.348 202.224 221.188 203.596C220.106 216.116 214.761 249.544 214.761 249.544L278.503 210.759L298.32 224.497Z" fill="#C6866B"/>
<path opacity="0.05" d="M282.107 198.232C282.107 198.232 253.534 257.634 257.93 285.62C257.93 285.62 251.336 302.805 304.087 294.951L378.819 280.224L399.155 284.646L403.551 289.555V303.3C403.551 303.3 409.6 307.227 411.244 303.3C412.888 299.373 411.244 289.06 411.244 289.06L415.095 294.951L416.748 306.732C416.748 306.732 421.144 309.678 422.796 306.732L420.59 289.508C420.59 289.508 429.382 305.711 433.233 304.235C437.083 302.758 428.283 284.104 428.283 284.104C430.001 284.102 431.688 284.51 433.172 285.284C434.655 286.059 435.881 287.172 436.723 288.51C438.481 291.236 440.75 294.008 442.57 292.948C445.867 290.984 442.57 285.58 442.57 285.58L434.877 275.762C424.171 268.431 411.104 264.382 397.616 264.216L299.146 262.999C299.146 262.999 312.888 234.032 313.987 219.8C313.987 219.8 314.541 210.964 326.63 205.073C338.719 199.182 296.394 146.683 282.107 198.232Z" fill="black"/>
<path d="M322.77 166.806C322.77 166.806 295.295 146.675 281.008 198.224C281.008 198.224 252.434 257.627 256.83 285.612C256.83 285.612 250.236 302.797 302.988 294.943L377.72 280.216L398.056 284.638L402.452 289.547V303.292C402.452 303.292 408.501 307.219 410.145 303.292C411.789 299.365 410.145 289.052 410.145 289.052L413.996 294.943L415.648 306.724C415.648 306.724 420.044 309.67 421.697 306.724L419.49 289.508C419.49 289.508 428.282 305.711 432.133 304.235C435.984 302.758 427.227 284.143 427.227 284.143C428.946 284.142 430.633 284.549 432.117 285.323C433.6 286.098 434.826 287.211 435.668 288.549C437.426 291.275 439.694 294.047 441.514 292.987C444.811 291.024 441.514 285.62 441.514 285.62L433.821 275.802C423.116 268.471 410.048 264.421 396.561 264.256L298.091 263.038C298.091 263.038 311.833 234.071 312.932 219.839C312.932 219.839 313.486 211.003 325.575 205.112C337.664 199.221 322.77 166.806 322.77 166.806Z" fill="#FFC095"/>
<path opacity="0.05" d="M506.865 171.228C506.865 171.228 545.884 145.701 547.528 193.81L549.735 293.435L487.083 353.364C487.083 353.364 483.232 364.659 471.697 365.64L459.054 379.386C459.054 379.386 453.006 379.88 454.105 377.909C455.204 375.938 462.897 362.687 462.897 362.687L446.412 382.323C446.412 382.323 441.462 380.846 443.115 379.378C443.115 379.378 437.62 384.782 436.521 379.873C435.422 374.964 436.521 375.945 436.521 375.945C436.521 375.945 429.373 380.854 431.026 373.982C432.679 367.109 446.966 345.015 448.61 345.015C450.254 345.015 469.491 343.538 469.491 343.538L522.242 286.099C522.242 286.099 504.658 219.336 499.709 195.773C494.759 172.21 506.865 171.228 506.865 171.228Z" fill="black"/>
<path d="M500.017 171.228C500.017 171.228 539.036 145.701 540.68 193.81L542.887 293.435L480.235 353.364C480.235 353.364 476.384 364.659 464.849 365.64L452.207 379.386C452.207 379.386 446.158 379.88 447.257 377.909C448.356 375.938 456.049 362.687 456.049 362.687L439.564 382.323C439.564 382.323 434.614 380.846 436.267 379.378C436.267 379.378 430.772 384.782 429.673 379.873C428.574 374.964 429.673 375.945 429.673 375.945C429.673 375.945 422.525 380.854 424.178 373.982C425.831 367.109 440.118 345.015 441.762 345.015C443.406 345.015 462.643 343.538 462.643 343.538L515.394 286.099C515.394 286.099 497.81 219.336 492.861 195.773C487.911 172.21 500.017 171.228 500.017 171.228Z" fill="#B17860"/>
<path opacity="0.05" d="M438.437 94.9855C434.622 101.528 433.391 109.045 433.232 116.42C433.145 120.198 433.338 124.039 434.683 127.621C435.899 130.491 437.477 133.229 439.387 135.781L447.774 147.971C448.909 149.621 450.139 151.357 452.074 152.236C454.008 153.116 456.584 152.975 458.879 152.723C464.338 152.126 469.886 151.364 474.783 149.134C481.096 146.259 485.764 141.224 490.248 136.323C491.692 135.118 492.784 133.615 493.429 131.946C494.074 130.278 494.253 128.493 493.95 126.749L492.983 107.285C493 105.307 492.671 103.338 492.007 101.45C490.09 96.8548 484.701 94.3807 480.111 91.7023C473.35 87.7751 465.719 81.3738 456.98 81.8215C448.961 82.2299 441.928 89.0083 438.437 94.9855Z" fill="black"/>
<path d="M438.437 94.0037C434.622 100.546 433.391 108.063 433.232 115.438C433.145 119.216 433.338 123.057 434.683 126.639C435.901 129.501 437.479 132.231 439.387 134.776L447.774 146.966C448.909 148.615 450.139 150.351 452.074 151.231C454.008 152.111 456.584 151.969 458.879 151.718C464.338 151.121 469.886 150.359 474.783 148.128C481.096 145.254 485.764 140.219 490.248 135.318C491.692 134.112 492.784 132.61 493.429 130.941C494.074 129.272 494.253 127.488 493.95 125.743L492.991 106.272C493.009 104.293 492.68 102.324 492.016 100.436C490.099 95.8416 484.709 93.3675 480.12 90.6891C473.359 86.7619 465.728 80.3606 456.988 80.8083C448.961 81.2481 441.928 88.0265 438.437 94.0037Z" fill="#B17860"/>
<g opacity="0.1">
<path opacity="0.1" d="M421.003 159.125C423.958 151.111 426.123 142.883 427.474 134.532C428.739 126.705 429.257 118.796 429.021 110.891C428.859 116.338 428.342 121.772 427.474 127.165C426.123 135.515 423.958 143.744 421.003 151.757C420.193 153.631 419.672 155.594 419.455 157.593C419.4 158.973 419.623 160.352 420.115 161.661C420.378 160.782 420.695 159.91 421.003 159.125Z" fill="#252036"/>
<path opacity="0.1" d="M517.248 131.838C516.79 133.726 516.666 135.666 516.879 137.588C516.997 138.36 517.197 139.12 517.477 139.858C518.585 142.827 520.818 145.458 522.998 147.963L531.834 158.174C533.443 160.028 535.228 161.991 537.716 162.69L537.971 162.761C539.474 163.122 541.101 162.989 542.534 163.547C543.354 163.887 544.072 164.396 544.628 165.032C545.184 165.668 545.564 166.414 545.734 167.207C545.849 166.476 545.945 165.754 546.033 165.023C546.42 161.677 546.033 157.475 542.516 156.179C541.083 155.645 539.457 155.779 537.953 155.394L537.699 155.323C535.21 154.624 533.426 152.66 531.817 150.807L522.981 140.596C520.8 138.09 518.585 135.459 517.459 132.49C517.389 132.278 517.31 132.058 517.248 131.838Z" fill="#252036"/>
<path opacity="0.1" d="M428.854 97.8052C430.612 86.0864 435.096 78.0278 445.559 70.8253C447.783 69.3016 456.883 67.3773 459.573 66.6782L460.074 66.5683C464.901 65.6807 474.379 68.6497 478.845 70.0085C487.422 72.5863 494.898 77.4693 500.249 83.9889C505.6 90.5086 508.565 98.3463 508.738 106.429C508.808 109.335 508.694 112.642 510.611 114.841C510.853 115.13 511.13 115.393 511.437 115.627C512.51 116.412 513.881 116.891 515.007 117.653C516.401 118.648 517.385 120.03 517.802 121.58C517.917 121.023 518.022 120.457 518.11 119.9C518.629 116.444 518.11 112.43 515.007 110.317C513.881 109.532 512.51 109.116 511.437 108.291C511.13 108.057 510.853 107.794 510.611 107.505C508.694 105.306 508.799 102.007 508.738 99.0933C508.565 91.0103 505.6 83.1726 500.249 76.6529C494.898 70.1333 487.422 65.2503 478.845 62.6725C474.379 61.3137 464.901 58.3526 460.074 59.2323L459.573 59.3422C456.883 60.0413 447.783 61.9656 445.559 63.4893C435.061 70.6918 430.551 78.7504 428.854 90.4692C428.543 93.1549 428.513 95.8608 428.766 98.5514C428.801 98.2922 428.819 98.0487 428.854 97.8052Z" fill="#252036"/>
</g>
<path d="M144.662 285.926C143.063 284.524 140.905 283.747 138.665 283.766C136.424 283.786 134.283 284.599 132.714 286.028C131.145 287.457 130.275 289.385 130.297 291.386C130.318 293.388 131.229 295.3 132.828 296.702L144.891 307.274L156.725 296.498C158.294 295.069 159.164 293.142 159.143 291.14C159.121 289.138 158.21 287.226 156.611 285.824C155.011 284.422 152.854 283.645 150.613 283.664C148.372 283.683 146.232 284.497 144.662 285.926Z" fill="#F3C677"/>
<path d="M402.408 372.819C400.808 371.417 398.65 370.64 396.41 370.66C394.169 370.679 392.029 371.492 390.459 372.921C388.89 374.35 388.02 376.278 388.042 378.28C388.063 380.281 388.974 382.194 390.574 383.596L402.61 394.16L414.444 383.384C415.221 382.676 415.834 381.839 416.249 380.919C416.664 380 416.872 379.016 416.861 378.025C416.851 377.034 416.622 376.054 416.187 375.142C415.753 374.23 415.122 373.403 414.33 372.709C413.537 372.015 412.6 371.467 411.571 371.097C410.542 370.726 409.441 370.54 408.332 370.55C407.222 370.559 406.126 370.764 405.105 371.152C404.084 371.54 403.158 372.104 402.381 372.811L402.408 372.819Z" fill="#F3C677"/>
<path d="M482.707 94.1017C487.803 100.493 488.75 108.609 486.32 115.898C484.501 121.366 480.88 127.043 483.328 132.379C485.171 136.384 490.309 140.376 487.761 144.139C487.191 144.978 486.269 145.673 485.934 146.584C485.364 148.138 486.647 149.678 487.535 151.134C492.178 158.712 486.63 167.424 483.914 175.552C481.903 181.57 481.492 187.831 481.09 194.045L486.119 183.996C488.191 192.427 492.678 200.381 499.243 207.261C495.551 207.293 491.882 207.734 488.348 208.572C490.963 208.326 493.602 208.858 495.738 210.063C497.875 211.268 499.355 213.057 499.882 215.076C500.41 217.095 499.948 219.195 498.587 220.959C497.227 222.724 495.068 224.023 492.538 224.6C497.685 225.491 502.998 222.751 505.462 219.106C507.926 215.462 508.119 211.155 507.826 207.038L512.016 207.307C507.827 199.433 506.044 190.903 506.812 182.396C507.155 178.633 508.739 174.189 513.349 173.081L514.732 183.065L520.355 174.202C520.718 173.423 521.406 172.762 522.308 172.327C522.995 172.159 523.695 172.028 524.404 171.934C526.608 171.403 527.463 169.154 526.775 167.437C526.088 165.719 524.32 164.415 522.635 163.182C516.936 159.013 511.254 154.569 508.169 148.964C505.303 143.759 504.892 137.957 504.591 132.293C504.233 125.655 503.954 119.012 503.752 112.365C503.61 107.121 503.518 101.837 502.076 96.7239C499.562 88.0642 492.857 80.0208 482.992 75.5959C473.128 71.171 460.254 70.7711 450.549 75.3664C444.682 78.1328 440.349 82.4069 436.117 86.5893L423.972 98.5856C421.458 101.07 418.893 103.627 417.728 106.655C415.583 112.24 418.567 118.212 422.204 123.319C425.841 128.426 430.208 133.454 431.096 139.242C432.119 145.935 428.305 152.432 424.584 158.508C419.857 166.231 415.055 174.051 407.939 180.554C404.319 183.865 399.944 187.077 398.921 191.357C399.693 191.85 400.601 192.194 401.574 192.361C402.546 192.529 403.555 192.515 404.52 192.321C401.631 201.298 399.321 210.372 397.589 219.546C407.897 214.231 417.896 208.572 427.585 202.567C427.988 204.06 428.867 205.449 430.141 206.606C431.414 207.762 433.04 208.648 434.868 209.181C435.161 206.638 434.03 204.134 433.871 201.584C433.711 199.034 434.968 196.058 438.061 195.291C439.871 194.845 442.017 195.225 443.551 194.353C444.674 193.698 445.11 192.583 445.478 191.528L452.468 171.455C456.716 171.296 460.934 172.092 464.621 173.75C459.363 171.454 455.455 167.648 453.725 163.136L468.267 162.959C464.428 160.119 460.71 157.184 457.111 154.156C451.873 149.75 446.87 145.122 443.056 139.898C432.354 125.259 432.203 106.242 442.679 91.4993C444.414 89.0541 446.484 86.6745 449.384 85.0684C459.869 79.3718 476.958 86.8974 482.707 94.1017Z" fill="black"/>
</svg>
