<svg width="78" height="78" viewBox="0 0 78 78" fill="none" xmlns="http://www.w3.org/2000/svg">
<g clip-path="url(#clip0)">
<path d="M34.27 46.4435L46.8765 39.1829L34.27 31.9222V46.4435Z" fill="white"/>
<path d="M39.0971 0.427979C17.6967 0.427979 0.342285 17.7824 0.342285 39.1828C0.342285 60.5833 17.6967 77.9377 39.0971 77.9377C60.4976 77.9377 77.852 60.5833 77.852 39.1828C77.852 17.7824 60.4976 0.427979 39.0971 0.427979ZM63.313 39.2225C63.313 39.2225 63.313 47.0821 62.316 50.8721C61.7572 52.9466 60.1215 54.5822 58.047 55.1405C54.2571 56.1381 39.0971 56.1381 39.0971 56.1381C39.0971 56.1381 23.9769 56.1381 20.1473 55.1009C18.0728 54.5426 16.4371 52.9064 15.8783 50.8319C14.8807 47.0821 14.8807 39.1828 14.8807 39.1828C14.8807 39.1828 14.8807 31.3238 15.8783 27.5338C16.4365 25.4593 18.1124 23.7834 20.1473 23.2252C23.9372 22.2276 39.0971 22.2276 39.0971 22.2276C39.0971 22.2276 54.2571 22.2276 58.047 23.2648C60.1215 23.8231 61.7572 25.4593 62.316 27.5338C63.3532 31.3238 63.313 39.2225 63.313 39.2225Z" fill="white"/>
</g>
<defs>
<clipPath id="clip0">
<rect width="77.5097" height="77.5097" fill="white" transform="translate(0.342285 0.427979)"/>
</clipPath>
</defs>
</svg>
